<svg width="72" height="72" viewBox="0 0 72 72" fill="none" xmlns="http://www.w3.org/2000/svg">
<path d="M68.4 10.8001H50.4V7.20007C50.3959 3.88777 47.7123 1.20417 44.4 1.20007H27.6C24.2877 1.20417 21.6041 3.88777 21.6 7.20007V10.8001H3.6C1.61191 10.8001 0 12.412 0 14.4001V55.2001C0 57.1882 1.61191 58.8001 3.6 58.8001H46.8V66.0001C46.8 68.6508 48.9492 70.8001 51.6 70.8001C54.2508 70.8001 56.4 68.6508 56.4 66.0001V58.8001H68.4C70.3881 58.8001 72 57.1882 72 55.2001V14.4001C72 12.412 70.3881 10.8001 68.4 10.8001ZM24 7.20007C24 5.21199 25.6119 3.60007 27.6 3.60007H44.4C46.3881 3.60007 48 5.21199 48 7.20007V10.8001H24V7.20007ZM3.6 56.4001C2.9373 56.4001 2.4 55.8628 2.4 55.2001V49.2962C6.0791 49.8311 8.96895 52.721 9.50391 56.4001H3.6ZM48 52.8001C47.3373 52.8001 46.8 53.3374 46.8 54.0001V56.4001H11.9291C11.3625 51.3909 7.40918 47.4376 2.4 46.871V32.2583C3.53672 33.1284 4.92832 33.5995 6.35977 33.6001H12V40.8001C12 41.178 12.1781 41.5337 12.4799 41.7598L17.2799 45.3598C17.7064 45.6803 18.2936 45.6803 18.7201 45.3598L23.5201 41.7598C23.8219 41.5337 24 41.178 24 40.8001V33.6001H34.8609C34.8322 33.9985 34.8 34.3946 34.8 34.8001C34.8117 42.6856 40.2996 49.5042 48 51.2016V52.8001ZM14.4 40.2001V28.8001H21.6V40.2001L18 42.9001L14.4 40.2001ZM54 66.0001C54 67.3255 52.9254 68.4001 51.6 68.4001C50.2746 68.4001 49.2 67.3255 49.2 66.0001V55.2001H54V66.0001ZM50.4 52.8001V51.5391C50.7984 51.5678 51.1945 51.6001 51.6 51.6001C52.0055 51.6001 52.4016 51.5678 52.8 51.5391V52.8001H50.4ZM51.6 49.2001C43.6471 49.2001 37.2 42.753 37.2 34.8001C37.2 26.8471 43.6471 20.4001 51.6 20.4001C59.5529 20.4001 66 26.8471 66 34.8001C65.9912 42.7495 59.5494 49.1913 51.6 49.2001ZM69.6 55.2001C69.6 55.8628 69.0627 56.4001 68.4 56.4001H62.4961C63.0311 52.721 65.9209 49.8311 69.6 49.2962V55.2001ZM69.6 46.871C64.5908 47.4376 60.6375 51.3909 60.0709 56.4001H56.4V54.0001C56.4 53.3374 55.8627 52.8001 55.2 52.8001V51.2016C62.9004 49.5042 68.3883 42.6856 68.4 34.8001C68.4 34.213 68.3684 33.627 68.3063 33.0434C68.7668 32.8372 69.201 32.5776 69.6 32.2694V46.871ZM69.6 27.6001C69.576 28.8341 68.9104 29.9667 67.8434 30.5866C65.8975 23.0678 59.0467 17.8665 51.2813 18.0124C43.5158 18.1583 36.8654 23.6134 35.2031 31.2001H24V27.6001C24 26.9374 23.4627 26.4001 22.8 26.4001H13.2C12.5373 26.4001 12 26.9374 12 27.6001V31.2001H6.35977C4.27441 31.2938 2.50488 29.6854 2.4 27.6001V14.4001C2.4 13.7374 2.9373 13.2001 3.6 13.2001H68.4C69.0627 13.2001 69.6 13.7374 69.6 14.4001V27.6001Z" fill="#10547F"/>
<path d="M20.3977 37.1999C20.3977 38.5253 19.323 39.5999 17.9977 39.5999C16.6723 39.5999 15.5977 38.5253 15.5977 37.1999C15.5977 35.8745 16.6723 34.7999 17.9977 34.7999C19.323 34.7999 20.3977 35.8745 20.3977 37.1999Z" fill="#10547F"/>
<path d="M39.6016 34.8C39.6086 41.4247 44.9769 46.793 51.6016 46.8V44.4C46.2994 44.4 42.0016 40.1022 42.0016 34.8C42.0016 29.4979 46.2994 25.2 51.6016 25.2V22.8C44.9769 22.8071 39.6086 28.1754 39.6016 34.8Z" fill="#10547F"/>
</svg>
