<svg width="30" height="30" viewBox="0 0 30 30" fill="none" xmlns="http://www.w3.org/2000/svg">
<g clip-path="url(#clip0)">
<path d="M27.475 12.5743C26.8057 12.5743 26.2632 13.1169 26.2632 13.7862V15.0067C26.2614 18.1906 25.0198 21.1832 22.7671 23.4332C20.5161 25.6816 17.5249 26.9196 14.3436 26.9196C14.3413 26.9196 14.3389 26.9196 14.3366 26.9196C7.76403 26.9158 2.41992 21.5657 2.42367 14.993C2.42549 11.8092 3.66709 8.81661 5.91979 6.56649C8.17078 4.31813 11.1621 3.08017 14.3433 3.08017C14.3456 3.08017 14.348 3.08017 14.3503 3.08017C16.0303 3.0811 17.6603 3.42833 19.1948 4.11206C19.8063 4.38452 20.5225 4.10966 20.795 3.49835C21.0673 2.88704 20.7926 2.17067 20.1813 1.89821C18.3346 1.07538 16.3733 0.657607 14.3517 0.656494C14.3486 0.656494 14.3463 0.656494 14.3432 0.656494C10.5154 0.656494 6.91547 2.14642 4.20692 4.85181C1.49625 7.55931 0.00222893 11.1604 2.36279e-06 14.9917C-0.00216561 18.823 1.48764 22.4258 4.19526 25.1364C6.90287 27.8471 10.5039 29.3411 14.3352 29.3433C14.3382 29.3433 14.3406 29.3433 14.3436 29.3433C18.1715 29.3433 21.7714 27.8535 24.4799 25.148C27.1906 22.4405 28.6846 18.8394 28.6869 15.0075V13.7862C28.6869 13.1169 28.1443 12.5743 27.475 12.5743Z" fill="#10547F"/>
<path d="M29.6443 2.33208C29.171 1.85887 28.4038 1.85887 27.9305 2.33208L14.3427 15.9198L11.2601 12.8373C10.7869 12.364 10.0196 12.364 9.54635 12.8373C9.07309 13.3105 9.07309 14.0778 9.54635 14.5511L13.4858 18.4906C13.7224 18.7272 14.0326 18.8455 14.3428 18.8455C14.6529 18.8455 14.9631 18.7272 15.1997 18.4906L29.6443 4.04588C30.1176 3.57262 30.1176 2.80534 29.6443 2.33208Z" fill="#10547F"/>
</g>
<defs>
<clipPath id="clip0">
<rect width="30" height="30" fill="white"/>
</clipPath>
</defs>
</svg>
