<svg width="52" height="52" viewBox="0 0 52 52" fill="none" xmlns="http://www.w3.org/2000/svg">
<g clip-path="url(#clip0)">
<path d="M51.3722 0.372953C50.6499 -0.212859 49.5961 -0.095047 49.0168 0.632953L22.262 34.2989L13.5024 23.2773C12.9231 22.5485 11.8668 22.4307 11.1461 23.0173C10.4246 23.6031 10.3085 24.6683 10.8902 25.3988L20.5825 37.5952C20.8758 38.1201 21.4259 38.4337 22.019 38.4337C22.1125 38.4337 22.2067 38.4069 22.3026 38.3906C22.3562 38.3971 22.4106 38.4264 22.4667 38.4264C22.9965 38.4264 23.5124 38.1672 23.8382 37.7276L51.6298 2.75358C52.2107 2.02477 52.0945 0.958766 51.3722 0.372953Z" fill="#10547F"/>
<path d="M48.0659 17.212C47.1396 17.212 46.3905 17.97 46.3905 18.9052V46.9186C46.3905 47.8522 45.6381 48.6127 44.7135 48.6127H5.02938C4.10394 48.6127 3.35238 47.8522 3.35238 46.9186V6.81929C3.35238 5.88654 4.10475 5.12604 5.02938 5.12604H32.5008C33.4279 5.12604 34.177 4.36717 34.177 3.43117C34.177 2.49679 33.4271 1.73792 32.5008 1.73792H5.02938C2.2555 1.73792 0 4.01698 0 6.81929V46.9186C0 49.7209 2.2555 52.0008 5.02938 52.0008H44.7127C47.4866 52.0008 49.7429 49.7209 49.7429 46.9186V18.9052C49.7437 17.9692 48.9938 17.212 48.0659 17.212Z" fill="#10547F"/>
</g>
<defs>
<clipPath id="clip0">
<rect width="52" height="52" fill="white"/>
</clipPath>
</defs>
</svg>
