<svg width="54" height="54" viewBox="0 0 54 54" fill="none" xmlns="http://www.w3.org/2000/svg">
<path d="M41.9468 8.26643C42.6665 8.26643 43.2502 7.68287 43.2502 6.96305V2.8505C43.2502 1.27881 41.9722 0 40.4011 0H12.8274C12.4818 0 12.1503 0.137426 11.9057 0.381797L1.10836 11.1792C0.863988 11.4235 0.726562 11.7551 0.726562 12.1007V51.1494C0.726668 52.7212 2.00537 54 3.57717 54H40.401C41.9721 54 43.2501 52.7212 43.2501 51.1495V31.2492C43.2502 30.5295 42.6666 29.9458 41.9468 29.9458C41.2271 29.9458 40.6434 30.5294 40.6434 31.2492V51.1495C40.6434 51.2839 40.5347 51.3932 40.4012 51.3932H3.57728C3.44291 51.3932 3.33354 51.2839 3.33354 51.1495V13.4043H11.2817C12.8529 13.4043 14.131 12.1261 14.131 10.5549V2.60677H40.4011C40.5347 2.60677 40.6433 2.71614 40.6433 2.8505V6.96305C40.6433 7.68287 41.227 8.26643 41.9468 8.26643ZM11.5242 10.5548C11.5242 10.6886 11.4154 10.7975 11.2817 10.7975H5.17734L11.5242 4.45036V10.5548Z" fill="#10547F"/>
<path d="M51.9841 10.5886L50.4505 9.05522C48.7309 7.33566 45.933 7.33587 44.2133 9.05522L32.0397 21.2287H10.9245C10.2047 21.2287 9.62109 21.8123 9.62109 22.5321C9.62109 23.2519 10.2047 23.8355 10.9245 23.8355H29.433L21.5883 31.6802H10.9245C10.2047 31.6802 9.62109 32.2637 9.62109 32.9835C9.62109 33.7034 10.2047 34.2869 10.9245 34.2869H18.9814L18.9605 34.3079C18.8014 34.467 18.6864 34.6643 18.6262 34.8809L16.613 42.1316H10.9245C10.2047 42.1316 9.62109 42.7151 9.62109 43.435C9.62109 44.1548 10.2047 44.7384 10.9245 44.7384H17.604C17.6041 44.7384 17.8897 44.7061 17.9317 44.6951C17.9386 44.6933 26.158 42.4126 26.158 42.4126C26.3746 42.3524 26.572 42.2373 26.731 42.0783L51.9842 16.8254C53.7036 15.1061 53.7036 12.3082 51.9841 10.5886ZM19.4764 41.5624L20.5403 37.7311L23.3078 40.4986L19.4764 41.5624ZM25.8094 39.3137L21.7255 35.2298L42.5712 14.3841L46.6552 18.468L25.8094 39.3137ZM50.1407 14.9822L48.4985 16.6245L44.4145 12.5405L46.0568 10.8983C46.7601 10.195 47.9043 10.1951 48.6071 10.8983L50.1407 12.4319C50.8439 13.1351 50.8439 14.2792 50.1407 14.9822Z" fill="#10547F"/>
</svg>
