<svg width="69" height="69" viewBox="0 0 69 69" fill="none" xmlns="http://www.w3.org/2000/svg">
<path d="M34.5 16.9805C33.7562 16.9805 33.1523 17.5843 33.1523 18.3281C33.1523 19.072 33.7562 19.6758 34.5 19.6758C35.2438 19.6758 35.8477 19.072 35.8477 18.3281C35.8477 17.5843 35.2438 16.9805 34.5 16.9805Z" fill="#10547F"/>
<path d="M12.1289 41.2383C12.8727 41.2383 13.4766 40.6345 13.4766 39.8906C13.4766 39.1468 12.8727 38.543 12.1289 38.543C11.3851 38.543 10.7812 39.1468 10.7812 39.8906C10.7812 40.6345 11.3851 41.2383 12.1289 41.2383Z" fill="#10547F"/>
<path d="M45.2812 3.50391C33.1487 3.50391 23.1907 11.8689 22.4206 22.4053C10.866 22.9849 0 31.3167 0 42.5859C0 47.2954 1.86356 51.8584 5.25586 55.474C5.92706 58.2409 5.11214 61.1736 3.09013 63.1956C2.70479 63.5809 2.5895 64.1605 2.79797 64.6643C3.00643 65.1676 3.49759 65.4961 4.04297 65.4961C7.88642 65.4961 11.5904 63.9889 14.3425 61.3331C17.0236 62.247 20.5218 62.8008 23.7188 62.8008C35.8498 62.8008 45.8066 54.4379 46.5789 43.9036C49.4006 43.7783 52.3354 43.2571 54.6575 42.4659C57.4096 45.1217 61.1136 46.6289 64.957 46.6289C65.5024 46.6289 65.9936 46.3004 66.202 45.7971C66.4105 45.2934 66.2952 44.7138 65.9099 44.3284C63.8879 42.3064 63.0729 39.3737 63.7441 36.6068C67.1364 32.9913 69 28.4282 69 23.7188C69 12.0094 57.297 3.50391 45.2812 3.50391ZM23.7188 60.1055C20.5381 60.1055 16.9136 59.4811 14.4857 58.5151C13.9656 58.3077 13.3713 58.4441 12.9928 58.8573C11.3656 60.6361 9.24987 61.8764 6.94464 62.4465C8.21491 60.0128 8.53919 57.1438 7.7664 54.4253C7.70533 54.2111 7.59215 54.0152 7.43685 53.8557C4.37936 50.7066 2.69531 46.7042 2.69531 42.5859C2.69531 33.0892 12.3226 25.0664 23.7188 25.0664C34.48 25.0664 43.9336 32.5496 43.9336 42.5859C43.9336 52.2464 34.8653 60.1055 23.7188 60.1055ZM61.5631 34.9885C61.4079 35.1486 61.2947 35.3444 61.2336 35.5581C60.4608 38.2766 60.7851 41.1456 62.0554 43.5793C59.7501 43.0097 57.6344 41.7689 56.0072 39.9901C55.6287 39.5774 55.0344 39.4405 54.5143 39.6479C52.4101 40.485 49.4084 41.0646 46.5747 41.2046C46.1809 36.1082 43.6388 31.3183 39.2926 27.7617H56.8711C57.6155 27.7617 58.2188 27.1584 58.2188 26.4141C58.2188 25.6697 57.6155 25.0664 56.8711 25.0664H35.1522C32.0932 23.5092 28.6582 22.6011 25.1227 22.4106C25.8971 13.3592 34.6427 6.19922 45.2812 6.19922C56.6774 6.19922 66.3047 14.222 66.3047 23.7188C66.3047 27.837 64.6206 31.8394 61.5631 34.9885Z" fill="#10547F"/>
<path d="M34.5 38.543H17.5195C16.7752 38.543 16.1719 39.1463 16.1719 39.8906C16.1719 40.635 16.7752 41.2383 17.5195 41.2383H34.5C35.2444 41.2383 35.8477 40.635 35.8477 39.8906C35.8477 39.1463 35.2444 38.543 34.5 38.543Z" fill="#10547F"/>
<path d="M34.5 46.6289H12.1289C11.3845 46.6289 10.7812 47.2322 10.7812 47.9766C10.7812 48.7209 11.3845 49.3242 12.1289 49.3242H34.5C35.2444 49.3242 35.8477 48.7209 35.8477 47.9766C35.8477 47.2322 35.2444 46.6289 34.5 46.6289Z" fill="#10547F"/>
<path d="M56.8711 16.9805H39.8906C39.1463 16.9805 38.543 17.5838 38.543 18.3281C38.543 19.0725 39.1463 19.6758 39.8906 19.6758H56.8711C57.6155 19.6758 58.2188 19.0725 58.2188 18.3281C58.2188 17.5838 57.6155 16.9805 56.8711 16.9805Z" fill="#10547F"/>
</svg>
