<svg width="59" height="59" viewBox="0 0 59 59" fill="none" xmlns="http://www.w3.org/2000/svg">
<g clip-path="url(#clip0)">
<path d="M40.7277 31.0806C40.8608 31.1384 41 31.1866 41.238 31.2704C41.3501 31.3128 41.4596 31.3554 41.5786 31.3929C42.4684 31.6735 43.4043 31.8149 44.3577 31.8149C44.6772 31.8149 44.9895 31.7984 45.3184 31.7654C45.4174 31.7537 45.5151 31.7396 45.6131 31.7218L45.8111 31.6935C45.9456 31.6746 46.0822 31.657 46.2401 31.624C46.3367 31.6027 46.4299 31.578 46.5242 31.5521L46.6503 31.5191C46.8024 31.485 46.952 31.4483 47.1288 31.3953L47.5271 31.2516C47.6757 31.2009 47.8242 31.1478 47.9478 31.0947C48.0208 31.0665 48.0905 31.0311 48.2024 30.9757C48.3933 30.8884 48.5901 30.7989 48.7482 30.7129C48.807 30.6847 48.8613 30.6517 48.9178 30.6174C49.0911 30.5183 49.2666 30.4158 49.4352 30.3062L49.6273 30.1776C51.0853 29.1733 52.2238 27.7744 52.9205 26.1301C53.3814 25.0422 53.6301 23.9072 53.6596 22.7509L53.6655 22.5046C53.6655 21.4168 53.4711 20.3406 53.0904 19.3105C51.7573 15.6509 48.2462 13.1921 44.3543 13.1921C40.2466 13.1921 36.6767 15.8357 35.472 19.7701C35.2468 20.5044 35.1149 21.2068 35.0689 21.9282L35.0606 22.0661C35.0513 22.211 35.0418 22.3561 35.0418 22.5057L35.0465 22.6271C35.0949 26.3223 37.325 29.6426 40.7277 31.0806ZM37.4158 22.2207L37.4251 22.0652C37.4581 21.5407 37.5572 21.0151 37.7281 20.46C38.6286 17.5217 41.291 15.5486 44.3568 15.5486C47.2621 15.5486 49.8823 17.3849 50.8807 20.1216C51.1458 20.8383 51.2896 21.5796 51.3085 22.328V22.5131C51.3085 23.4324 51.1224 24.34 50.7523 25.2099C50.2443 26.4085 49.4263 27.4317 48.3784 28.1764L48.184 28.3096C48.0461 28.4003 47.9047 28.4816 47.7868 28.55L47.6665 28.6208C47.5262 28.6962 47.3777 28.7622 47.2339 28.8271L47.0499 28.9166C46.9557 28.9568 46.8567 28.9896 46.654 29.0604L46.4229 29.1477C46.3215 29.1783 46.2203 29.2007 46.0292 29.2454L45.7568 29.3184C45.6732 29.3349 45.5872 29.3456 45.5034 29.3562L45.0662 29.4233C44.128 29.5189 43.1673 29.4233 42.2893 29.1464C42.2197 29.124 42.1548 29.098 42.0888 29.0721L41.9049 29.005C41.82 28.9755 41.7352 28.9485 41.6503 28.9118C39.1068 27.8357 37.4415 25.3571 37.4026 22.5048C37.4017 22.4082 37.4086 22.315 37.4158 22.2207ZM44.3555 31.8879C40.3328 31.8879 36.5588 33.532 33.802 36.4128C30.2308 33.4851 25.6682 31.7231 20.7003 31.7231C9.28646 31.7229 0 41.0093 0 52.4244C0 52.6084 0.0106368 52.791 0.0223739 52.9702L0.0777585 54.3834H41.311L41.3758 53.0056C41.3875 52.8134 41.3994 52.6214 41.3994 52.4246C41.3994 50.9949 41.2533 49.5982 40.9763 48.2488H58.9129L58.9813 46.9665C58.9906 46.8214 59.0002 46.6776 59.0002 46.5316C58.9989 38.4565 52.4303 31.8879 44.3555 31.8879ZM2.36191 52.0261C2.5752 42.0937 10.7197 34.0791 20.7003 34.0791C25.5127 34.0791 29.8866 35.9556 33.162 38.9975C33.4154 39.2321 33.6593 39.4749 33.8974 39.7212C33.994 39.8226 34.0883 39.9262 34.1826 40.0287C34.9062 40.8149 35.5569 41.6587 36.1296 42.5522C36.2239 42.6995 36.3182 42.848 36.409 43.0001C36.5716 43.27 36.7295 43.5411 36.8768 43.818C36.9511 43.9548 37.0158 44.0949 37.0855 44.2341C37.3554 44.7751 37.6006 45.3279 37.8163 45.8925C37.8647 46.0187 37.9164 46.1436 37.9625 46.2709C38.0756 46.5903 38.1794 46.9133 38.2748 47.2384C38.7261 48.7648 39.0008 50.3642 39.0362 52.0261H2.36191ZM40.3282 45.8912C40.3235 45.8782 40.3176 45.8665 40.3128 45.8535C40.083 45.1687 39.8155 44.5028 39.5184 43.8521C39.4678 43.7413 39.4124 43.634 39.3605 43.5257C39.0905 42.9612 38.7971 42.413 38.4789 41.8779C38.4046 41.753 38.3293 41.6279 38.2515 41.5043C37.9192 40.9715 37.5632 40.4553 37.1849 39.9568C37.1141 39.8637 37.047 39.7683 36.9751 39.6762C36.5166 39.094 36.0358 38.533 35.5206 38.0026C37.8308 35.604 40.9954 34.2464 44.3557 34.2464C50.9148 34.2464 56.2918 39.4147 56.6253 45.8925H40.3282V45.8912ZM15.6828 29.5377C15.8173 29.5931 15.9552 29.6437 16.0942 29.6933L16.4914 29.8394C16.6093 29.8842 16.7271 29.9289 16.8604 29.9715C18.1038 30.3592 19.4039 30.5561 20.7274 30.5585H20.7298C21.1753 30.5585 21.6137 30.5349 22.0368 30.4901C22.1795 30.4771 22.3196 30.4547 22.4612 30.4312L22.7935 30.3817C22.9751 30.357 23.1577 30.3298 23.3228 30.2957C23.4607 30.2675 23.5951 30.2321 23.7306 30.1956L23.9793 30.133C24.1774 30.0859 24.3753 30.0388 24.5805 29.9751C24.6748 29.9456 24.7666 29.9104 24.8574 29.8761L25.1945 29.7547C25.3854 29.6887 25.5739 29.6216 25.759 29.5438C25.8426 29.5084 25.9227 29.4695 26.0819 29.3907C26.353 29.2682 26.6253 29.1444 26.8953 29.0006C26.9554 28.9687 27.0132 28.9322 27.0792 28.8885C27.3822 28.7165 27.6828 28.5397 27.9727 28.3475L28.0765 28.2733C31.5923 25.8512 33.6914 21.8697 33.6962 17.5866C33.6962 10.4358 27.8773 4.61688 20.7254 4.61688C13.8988 4.61688 8.22003 9.95489 7.79456 16.7674L7.7852 16.9146C7.7698 17.1375 7.75458 17.3614 7.75458 17.5877C7.75549 22.81 10.8647 27.4999 15.6828 29.5377ZM10.1374 17.0784L10.148 16.917C10.4957 11.3421 15.1418 6.97403 20.7263 6.97403C26.5795 6.97403 31.34 11.7345 31.34 17.6005C31.3365 21.1164 29.5932 24.3978 26.7528 26.3284L26.5842 26.4391C26.3673 26.5794 26.1423 26.7102 25.9018 26.847L25.7839 26.9213C25.5659 27.0355 25.3408 27.1393 25.105 27.2442L24.8409 27.3715C24.703 27.4304 24.5603 27.4788 24.4165 27.5283L23.8638 27.7275C23.7235 27.7711 23.581 27.8029 23.4394 27.8371L23.1117 27.9197C23.0281 27.9433 22.9443 27.9668 22.8441 27.9868C22.7216 28.0127 22.5943 28.0292 22.4682 28.0469L22.0757 28.1058C21.9897 28.1199 21.9037 28.1353 21.8034 28.1447C21.4487 28.1825 21.0914 28.2012 20.7296 28.2012C19.6441 28.1988 18.5762 28.0374 17.5732 27.7251C17.4896 27.698 17.4071 27.6662 17.3257 27.6356L16.8861 27.4742C16.7859 27.4377 16.6856 27.4023 16.5937 27.3645C12.6559 25.6992 10.1112 21.8615 10.1112 17.5866C10.1126 17.4155 10.1257 17.247 10.1374 17.0784Z" fill="#10547F"/>
</g>
<defs>
<clipPath id="clip0">
<rect width="59" height="59" fill="white"/>
</clipPath>
</defs>
</svg>
