<?xml version="1.0" encoding="utf-8"?>
<svg width="20px" height="20px" viewBox="0 0 16 20" version="1.1" xmlns:xlink="http://www.w3.org/1999/xlink" xmlns="http://www.w3.org/2000/svg">
  <desc>Created with Lunacy</desc>
  <g id="dollar-coin-stack">
    <path d="M0.134836 0.629366L0.510112 0.929465C0.249749 1.22155 0.13238 1.50692 0.162024 1.77928C0.19256 2.06015 0.332786 2.30241 0.579176 2.49959C0.806056 2.68113 1.07325 2.77923 1.39638 2.80001C1.715 2.82014 2.20658 2.65585 2.85775 2.31141C3.01959 2.22575 3.14638 2.17551 3.23446 2.16341C3.32076 2.15097 3.39018 2.16848 3.4533 2.21937C3.49692 2.25381 3.62929 2.3596 3.29638 2.62615C3.08012 2.79936 2.85601 2.87037 2.63087 2.83806C2.45248 2.81253 2.27198 2.87291 2.16961 2.99212L1.96943 3.22537C1.88206 3.32731 1.86425 3.4574 1.92197 3.57219C1.97952 3.68656 2.10528 3.77034 2.25631 3.79522C2.75052 3.87638 3.2383 3.77223 3.70688 3.48685L4.21345 3.89209C4.39346 4.03592 4.6852 4.03592 4.86516 3.89241C5.04495 3.74825 5.04495 3.51492 4.86516 3.37084L4.34096 2.95153C4.57114 2.68334 4.69235 2.41237 4.70074 2.14451C4.71101 1.83099 4.5727 1.55715 4.29002 1.33085C4.08845 1.16943 3.85822 1.06978 3.60661 1.03427C3.35495 0.998517 3.11638 1.01832 2.89807 1.09342C2.68253 1.16755 2.35466 1.31743 1.92532 1.5376C1.73853 1.63259 1.61174 1.68078 1.54826 1.68143C1.48759 1.68209 1.43317 1.6645 1.39098 1.63062C1.24151 1.51142 1.3671 1.36031 1.49893 1.25476C1.6625 1.1241 1.83706 1.06242 2.01756 1.07101C2.19859 1.07968 2.36931 1.00236 2.45319 0.87383L2.56931 0.696454C2.64275 0.584285 2.63873 0.449781 2.55904 0.340148C2.47935 0.230842 2.33493 0.16179 2.17658 0.15729C1.83304 0.148372 1.5017 0.232397 1.16843 0.413618L0.786547 0.108119C0.606409 -0.0360397 0.314795 -0.0360397 0.134836 0.108119C-0.0449452 0.251951 -0.0449452 0.485207 0.134836 0.629366Z" transform="translate(4 1)" id="Fill-1" fill="#00DD8C" stroke="none" />
    <path d="M13.8986 5.36887C13.9366 5.18537 13.9559 4.99884 13.9559 4.8096L13.9559 4.21149C13.9559 3.01636 13.1876 1.9235 11.7924 1.13441C10.499 0.402741 8.7893 0 6.97808 0C5.16681 0 3.45693 0.402741 2.16345 1.13441C0.768244 1.9235 0 3.01636 0 4.21149L0 4.8096C0 5.98808 0.747632 7.06681 2.10617 7.85345C2.06839 8.03565 2.04411 8.26296 2.04411 8.40994L2.04411 8.51905C0.724631 9.30214 0 10.3662 0 11.5266L0 12.1249C0 12.9307 0.349843 13.6898 1.00525 14.341C0.91647 14.6163 0.870246 14.9001 0.870246 15.1904L0.870246 15.7885C0.870246 16.9836 1.63871 18.0765 3.0337 18.8656C4.32718 19.597 6.03706 20 7.84833 20C9.65955 20 11.3693 19.597 12.6627 18.8656C14.0579 18.0765 14.8261 16.9836 14.8261 15.7885L14.8261 15.1904C14.8261 14.3847 14.4767 13.6255 13.8216 12.9746C13.9101 12.6993 13.9559 12.415 13.9559 12.1249L13.9559 12.0158C15.2754 11.2325 16 10.1686 16 9.00799L16 8.40968C16 7.23262 15.2541 6.15493 13.8986 5.36887ZM0.975305 3.70519C1.17731 3.10856 1.72771 2.52916 2.55257 2.06268C3.72733 1.3983 5.29898 1.03234 6.97808 1.03234C8.65713 1.03234 10.2286 1.3983 11.4033 2.06268C12.2282 2.52916 12.7786 3.10856 12.9808 3.70519C12.2668 5.14756 9.7861 6.19906 6.97786 6.19906C4.16962 6.19906 1.68905 5.14756 0.975305 3.70519ZM0.975305 11.0205C1.13959 10.5353 1.53521 10.062 2.1205 9.6512C2.34601 10.592 3.06736 11.4399 4.20756 12.0849C5.50126 12.8165 7.21092 13.2195 9.02219 13.2195C9.19925 13.2195 9.37504 13.2144 9.54976 13.2069C8.75913 13.4043 7.88583 13.5147 6.97808 13.5147C4.16984 13.5144 1.68905 12.4629 0.975305 11.0205ZM13.8511 14.6844C13.1371 16.1265 10.6565 17.1782 7.84833 17.1782C5.40876 17.1782 3.21776 16.384 2.21623 15.2303C3.50338 15.9432 5.19092 16.3362 6.97808 16.3362C8.7893 16.3362 10.499 15.9334 11.7924 15.2018C12.4626 14.8227 12.9878 14.3736 13.3528 13.8766C13.5887 14.1359 13.7575 14.4081 13.8511 14.6844ZM9.02219 10.3977C6.57029 10.3977 4.36818 9.59597 3.37359 8.43259C4.44785 8.8152 5.68655 9.02083 6.97808 9.02083C8.7893 9.02083 10.499 8.61809 11.7924 7.88668C12.5756 7.44361 13.1614 6.90499 13.5245 6.30617C14.3062 6.76465 14.8292 7.32592 15.0249 7.90384C14.311 9.34595 11.8304 10.3977 9.02219 10.3977Z" id="Fill-2" fill="#00DD8C" stroke="none" />
  </g>
</svg>
