<svg width="23" height="23" viewBox="0 0 23 19" fill="none" xmlns="http://www.w3.org/2000/svg">
<path d="M19.0707 17.004H3.69591V12.4655H5.71659C5.92097 12.4655 6.10897 12.3286 6.20687 12.1086C6.30478 11.8886 6.29678 11.6207 6.18603 11.41L3.60693 6.50046C3.50419 6.30475 3.32736 6.18652 3.1375 6.18652C2.94764 6.18652 2.77091 6.30475 2.66807 6.50046L0.0889746 11.4099C-0.0216829 11.6206 -0.0296867 11.8885 0.0681275 12.1085C0.165942 12.3285 0.354031 12.4654 0.558408 12.4654H2.57909V17.6886C2.57909 18.0667 2.82907 18.3733 3.1375 18.3733H19.0707C19.379 18.3733 19.6291 18.0667 19.6291 17.6886C19.6291 17.3105 19.3791 17.004 19.0707 17.004ZM3.1375 8.13564L4.69266 11.096H1.58234L3.1375 8.13564Z" fill="#10547F"/>
<path d="M22.91 6.96004C22.8121 6.74339 22.6242 6.60865 22.4197 6.60865H20.3991V1.46514C20.3991 1.09284 20.149 0.790894 19.8407 0.790894H3.90753C3.59919 0.790894 3.34912 1.09284 3.34912 1.46514C3.34912 1.83744 3.59919 2.13939 3.90753 2.13939H19.2823V7.2829C19.2823 7.65519 19.5323 7.95715 19.8407 7.95715H21.3958L19.8407 10.8723L17.7309 6.91779C17.564 6.60472 17.2185 6.51437 16.9591 6.71608C16.6998 6.91768 16.625 7.33504 16.7921 7.648L19.3712 12.4825C19.474 12.6752 19.6508 12.7916 19.8407 12.7916C20.0305 12.7916 20.2073 12.6752 20.3101 12.4825L22.8892 7.648C22.9999 7.44056 23.0079 7.1767 22.91 6.96004Z" fill="#10547F"/>
</svg>
