<svg width="40" height="40" viewBox="0 0 40 40" fill="none" xmlns="http://www.w3.org/2000/svg">
<mask id="mask0" mask-type="alpha" maskUnits="userSpaceOnUse" x="0" y="0" width="40" height="40">
<path fill-rule="evenodd" clip-rule="evenodd" d="M16.5703 0.516602L0.590472 23.3382L23.4179 39.3221L39.3977 16.5005L16.5703 0.516602Z" fill="white"/>
</mask>
<g mask="url(#mask0)">
<path fill-rule="evenodd" clip-rule="evenodd" d="M8.58223 11.9245C12.9891 5.63085 21.6944 4.09595 27.988 8.50273C34.2815 12.9095 35.8165 21.6148 31.4096 27.9084C29.3341 30.8725 26.2363 32.8894 22.6866 33.5875C22.3794 33.6479 22.0811 33.4481 22.0209 33.1406C21.9605 32.8335 22.1603 32.5351 22.4674 32.4747C25.7283 31.8334 28.5738 29.9807 30.4805 27.2578C34.5286 21.4764 33.1186 13.4801 27.3373 9.43199C21.556 5.38388 13.5597 6.79377 9.51149 12.5752C5.46366 18.3561 6.87343 26.3528 12.6547 30.4009C13.9586 31.3138 15.3961 31.9683 16.9272 32.3458C17.2312 32.4211 17.4172 32.7283 17.3422 33.0325C17.2669 33.3363 16.9598 33.5224 16.6556 33.4475C14.9882 33.036 13.4228 32.3235 12.0041 31.3301C5.71052 26.9233 4.17545 18.218 8.58223 11.9245Z" fill="#10547F"/>
</g>
<path fill-rule="evenodd" clip-rule="evenodd" d="M25.0156 22.0294C24.9606 21.8511 25.0215 21.657 25.1659 21.5461L28.4026 19.0715C28.9183 18.6772 29.1235 18.0134 28.9259 17.38C28.7287 16.7466 28.1881 16.3351 27.5487 16.3321L23.5345 16.3127C23.355 16.3118 23.1966 16.192 23.1404 16.0142L21.882 12.0409C21.6817 11.4085 21.1395 11 20.5005 11C19.8611 11 19.3189 11.4085 19.1187 12.0409L18.5515 13.8311C18.4615 14.115 18.6093 14.4209 18.8813 14.5142C19.1537 14.608 19.4472 14.454 19.5372 14.1705L20.1039 12.3803C20.1918 12.103 20.4295 12.0815 20.5005 12.0815C20.5711 12.0815 20.8088 12.103 20.8966 12.3803L22.1547 16.3536C22.3512 16.9733 22.9035 17.3915 23.5298 17.3945L27.544 17.4139C27.8241 17.4153 27.9169 17.6441 27.9389 17.7145C27.9608 17.7845 28.0144 18.0267 27.7889 18.1992L24.5519 20.6742C24.0472 21.0601 23.836 21.7371 24.027 22.3586L25.25 26.3451C25.3353 26.6233 25.1554 26.7861 25.0979 26.8293C25.041 26.8728 24.8365 27.0009 24.6093 26.8305L21.3503 24.3864C20.8422 24.0052 20.1588 24.0052 19.6504 24.3864L16.3914 26.831C16.1641 27.0013 15.9593 26.8732 15.9022 26.8301C15.8448 26.7866 15.6649 26.6236 15.7502 26.346L16.9728 22.3586C17.1637 21.7371 16.9526 21.0601 16.4479 20.6742L13.2113 18.1992C12.9857 18.0267 13.0394 17.7845 13.0613 17.7145C13.0833 17.6441 13.1761 17.4153 13.4561 17.4139L17.4708 17.3945C17.7571 17.3932 17.9885 17.1498 17.9872 16.8514C17.9856 16.5534 17.7537 16.3132 17.4683 16.3132L13.4511 16.3324C12.8121 16.3356 12.2715 16.7466 12.0739 17.38C11.8767 18.0138 12.0819 18.6776 12.5972 19.0715L15.8338 21.5465C15.9782 21.6574 16.0391 21.8511 15.9842 22.0294L14.7615 26.0163C14.5669 26.651 14.7755 27.3138 15.2925 27.7051C15.5517 27.9014 15.8495 28 16.1472 28C16.4432 28 16.7388 27.9032 16.9973 27.7091L20.2569 25.2645C20.4025 25.1553 20.5985 25.1553 20.7442 25.2645L24.0029 27.7086C24.5219 28.0977 25.1908 28.0965 25.7081 27.7047C26.2251 27.3134 26.4337 26.6506 26.2391 26.0158L25.0156 22.0294Z" fill="#10547F"/>
</svg>
