<svg width="20" height="20" viewBox="0 0 20 20" fill="none" xmlns="http://www.w3.org/2000/svg">
<path id="Fill 1" fill-rule="evenodd" clip-rule="evenodd" d="M15.3124 12.9757C15.2478 12.766 15.3194 12.5376 15.4894 12.4072L19.2972 9.49593C19.9039 9.03195 20.1453 8.25102 19.9128 7.50588C19.6808 6.76074 19.0448 6.27662 18.2926 6.27304L13.57 6.25024C13.3589 6.24918 13.1725 6.10826 13.1064 5.89908L11.6258 1.22462C11.3903 0.480543 10.7524 0 10.0006 0C9.24833 0 8.61045 0.480543 8.37489 1.22462L7.70763 3.33066C7.60181 3.66472 7.77568 4.02463 8.0957 4.13439C8.4161 4.24469 8.76143 4.06347 8.86726 3.72994L9.53401 1.6239C9.63742 1.29766 9.91712 1.27235 10.0006 1.27235C10.0836 1.27235 10.3633 1.29766 10.4666 1.6239L11.9467 6.29836C12.1779 7.02746 12.8277 7.5194 13.5645 7.52298L18.2871 7.54578C18.6165 7.54737 18.7258 7.81661 18.7516 7.89946C18.7774 7.98179 18.8405 8.26666 18.5752 8.46962L14.7669 11.3814C14.1732 11.8354 13.9247 12.6319 14.1494 13.3631L15.5882 18.053C15.6885 18.3803 15.4769 18.5719 15.4093 18.6227C15.3423 18.6738 15.1018 18.8246 14.8344 18.6241L11.0003 15.7487C10.4026 15.3002 9.59862 15.3002 9.00043 15.7487L5.1663 18.6247C4.89894 18.8251 4.65803 18.6744 4.59087 18.6236C4.52333 18.5724 4.31168 18.3807 4.41204 18.0541L5.85035 13.3631C6.07497 12.6319 5.82656 11.8354 5.23282 11.3814L1.42502 8.46962C1.15969 8.26666 1.22278 7.98179 1.2486 7.89946C1.27442 7.81661 1.38368 7.54737 1.71311 7.54578L6.4362 7.52298C6.77301 7.52139 7.04533 7.23505 7.04381 6.88403C7.0419 6.5334 6.76907 6.25077 6.43328 6.25077L1.70714 6.27344C0.95542 6.27715 0.319451 6.76074 0.0869403 7.50588C-0.145061 8.25155 0.0963527 9.03249 0.702559 9.49593L4.51036 12.4077C4.68029 12.5381 4.7519 12.766 4.68729 12.9757L3.24885 17.6662C3.0199 18.4129 3.26526 19.1927 3.8735 19.6531C4.17851 19.884 4.5288 20 4.8791 20C5.22735 20 5.5751 19.8861 5.87922 19.6577L9.71399 16.7818C9.88532 16.6533 10.1159 16.6533 10.2873 16.7818L14.121 19.6572C14.7317 20.1149 15.5186 20.1135 16.1272 19.6526C16.7355 19.1923 16.9808 18.4124 16.7519 17.6657L15.3124 12.9757Z" fill="#00DD8C"/>
</svg>
