<svg width="15" height="24" viewBox="0 0 15 24" fill="none" xmlns="http://www.w3.org/2000/svg">
<g id="flash">
<g id="Group 3">
<path id="Fill 1" fill-rule="evenodd" clip-rule="evenodd" d="M14.687 8.45456C14.5781 8.29092 14.4147 8.1818 14.1968 8.1818H10.1665L13.5977 0.763641C13.6522 0.6 13.6522 0.381797 13.5433 0.218203C13.4343 0.0545625 13.2709 0 13.1075 0H7.11655C6.78976 0 6.57193 0.218203 6.57193 0.545438C6.57193 0.872719 6.78976 1.09092 7.11655 1.09092H12.2361L8.80493 8.50908C8.75045 8.67272 8.75045 8.89092 8.85937 9.05456C8.96833 9.2182 9.13172 9.27272 9.29512 9.27272H13.162L5.48264 20.7818L7.11655 13.2C7.17103 13.0364 7.11655 12.8727 7.00763 12.7636C6.89872 12.6 6.73532 12.5454 6.57193 12.5454H1.83356L5.48264 0.709078C5.59156 0.436359 5.42816 0.109078 5.10137 0.0545625C4.82906 -0.0545625 4.50227 0.109078 4.44784 0.436359L0.635361 12.9818C0.580927 13.0909 0.580927 13.2546 0.689842 13.4182C0.798756 13.5273 0.962151 13.6364 1.12555 13.6364H5.91835L3.84874 23.3454C3.79426 23.6182 3.90317 23.8364 4.17553 23.9454C4.22996 24 4.33892 24 4.39336 24C4.55675 24 4.72015 23.8909 4.82906 23.7818L14.6325 9.05456C14.7414 8.83636 14.7959 8.67272 14.687 8.45456Z" fill="#10547F"/>
</g>
<path id="Fill 4" fill-rule="evenodd" clip-rule="evenodd" d="M4.13794 5.84715L2.809 11.1722C2.72041 11.468 2.85331 11.823 3.07479 11.9413C3.1191 11.9413 3.16338 12.0005 3.20769 12.0005C3.38486 12.0005 3.56207 11.823 3.60638 11.5863L4.93532 6.2613C5.02391 5.96547 4.89101 5.61046 4.66953 5.49214C4.44804 5.37382 4.18225 5.55132 4.13794 5.84715Z" fill="#10547F"/>
</g>
</svg>
