<svg width="45" height="45" viewBox="0 0 45 45" fill="none" xmlns="http://www.w3.org/2000/svg">
<mask id="mask0" mask-type="alpha" maskUnits="userSpaceOnUse" x="0" y="0" width="45" height="45">
<path fill-rule="evenodd" clip-rule="evenodd" d="M0.59668 22.5059L22.4074 0.695149L44.2236 22.5114L22.4129 44.3221L0.59668 22.5059Z" fill="white"/>
</mask>
<g mask="url(#mask0)">
<path fill-rule="evenodd" clip-rule="evenodd" d="M11.5009 11.6016C5.48609 17.6164 5.48618 27.4032 11.5009 33.4179C17.5157 39.4327 27.3023 39.4327 33.3172 33.4179C36.15 30.585 37.7535 26.8197 37.8322 22.8151C37.8391 22.4686 37.5638 22.1817 37.217 22.1752C36.8705 22.1684 36.5836 22.4436 36.5768 22.7901C36.5044 26.4688 35.0315 29.9275 32.4292 32.5298C26.9039 38.0552 17.9143 38.0551 12.389 32.5298C6.86383 27.0046 6.86374 18.015 12.389 12.4897C17.9139 6.96484 26.9039 6.96456 32.4291 12.4898C33.6752 13.7359 34.6652 15.1774 35.3712 16.7742C35.5116 17.0912 35.8823 17.2349 36.1996 17.0947C36.5164 16.9542 36.6603 16.5835 36.5201 16.2663C35.7509 14.5274 34.6731 12.9576 33.3172 11.6017C27.3024 5.58691 17.5157 5.58682 11.5009 11.6016Z" fill="#10547F"/>
</g>
<path fill-rule="evenodd" clip-rule="evenodd" d="M24.8419 21.958C24.4953 21.962 24.2172 22.246 24.2212 22.5924C24.2248 22.9394 24.5088 23.2176 24.8556 23.2139L31.7718 23.1398C31.9427 23.1379 32.0966 23.068 32.209 22.9556C32.3239 22.8407 32.3947 22.6809 32.3928 22.505C32.389 22.1586 32.1049 21.8804 31.7581 21.8839L24.8419 21.958Z" fill="#10547F"/>
<path fill-rule="evenodd" clip-rule="evenodd" d="M19.7432 23.1395C19.9166 23.1396 20.0738 23.0691 20.1872 22.9557C20.301 22.8418 20.3711 22.6851 20.3711 22.5116C20.3711 22.1648 20.09 21.8837 19.7432 21.8837L13.0492 21.8838C12.7023 21.8838 12.4213 22.1649 12.4213 22.5117C12.4213 22.8586 12.7023 23.1396 13.0492 23.1396L19.7432 23.1395Z" fill="#10547F"/>
<path fill-rule="evenodd" clip-rule="evenodd" d="M22.4074 12.5256C22.0606 12.5256 21.7791 12.807 21.7795 13.1535L21.7794 31.8698C21.7794 32.2167 22.0605 32.4978 22.4073 32.4978C22.5804 32.4974 22.7376 32.427 22.8511 32.3135C22.9648 32.1998 23.0349 32.0429 23.0352 31.8698L23.0353 13.1535C23.0349 12.807 22.7539 12.526 22.4074 12.5256Z" fill="#10547F"/>
</svg>
