<?xml version="1.0" encoding="utf-8"?>
<svg width="20px" height="20px" viewBox="0 0 12 20" version="1.1" xmlns:xlink="http://www.w3.org/1999/xlink" xmlns="http://www.w3.org/2000/svg">
  <defs>
    <path d="M0 0L11.7866 0L11.7866 20L0 20L0 0Z" transform="translate(0.002340234 0)" id="path_1" />
    <clipPath id="mask_1">
      <use xlink:href="#path_1" />
    </clipPath>
  </defs>
  <g id="Group-3">
    <path d="M0 0L11.7866 0L11.7866 20L0 20L0 0Z" transform="translate(0.002340234 0)" id="Clip-2" fill="none" stroke="none" />
    <path d="M11.7395 7.04547C11.6487 6.9091 11.5125 6.81816 11.331 6.81816L7.97243 6.81816L10.8318 0.636367C10.8771 0.5 10.8771 0.318164 10.7864 0.181836C10.6956 0.0454688 10.5594 0 10.4233 0L5.43078 0C5.15846 0 4.97693 0.181836 4.97693 0.454531C4.97693 0.727266 5.15846 0.909102 5.43078 0.909102L9.69711 0.909102L6.83777 7.0909C6.79237 7.22727 6.79237 7.4091 6.88313 7.54547C6.97393 7.68184 7.11009 7.72727 7.24626 7.72727L10.4687 7.72727L4.06919 17.3182L5.43078 11C5.47618 10.8636 5.43078 10.7273 5.34002 10.6364C5.24926 10.5 5.11309 10.4545 4.97693 10.4545L1.02829 10.4545L4.06919 0.590898C4.15996 0.363633 4.02379 0.0908984 3.75147 0.0454688C3.52454 -0.0454688 3.25222 0.0908984 3.20686 0.363633L0.0297931 10.8182C-0.0155684 10.9091 -0.0155684 11.0455 0.0751937 11.1818C0.165956 11.2727 0.302118 11.3636 0.438281 11.3636L4.43228 11.3636L2.70761 19.4545C2.66221 19.6818 2.75297 19.8636 2.97993 19.9545C3.02529 20 3.11609 20 3.16146 20C3.29762 20 3.43378 19.9091 3.52454 19.8182L11.6941 7.54547C11.7849 7.36363 11.8303 7.22727 11.7395 7.04547" transform="translate(5.83351E-06 0)" id="Fill-1" fill="#10547F" stroke="none" />
  </g>
</svg>
