<?xml version="1.0" encoding="utf-8"?>
<svg width="20px" height="20px" viewBox="0 0 17 20" version="1.1" xmlns:xlink="http://www.w3.org/1999/xlink" xmlns="http://www.w3.org/2000/svg">
  <defs>
    <path d="M0 0L16.634 0L16.634 19.2831L0 19.2831L0 0Z" transform="translate(0.03 0.2046154)" id="path_1" />
    <clipPath id="mask_1">
      <use xlink:href="#path_1" />
    </clipPath>
  </defs>
  <g id="hourglass">
    <path d="M2.12116 4.79795C2.12116 5.04 2.31216 5.23641 2.54866 5.23641C2.78316 5.23641 2.97666 5.04 2.97666 4.79795C2.97666 4.28513 3.15416 3.78821 3.47666 3.39538C4.19316 2.52205 4.73016 1.57641 5.07216 0.585128C5.11716 0.450769 5.09766 0.302564 5.01766 0.186154C4.93716 0.0702564 4.80666 0 4.66766 0L0.427662 0C0.289162 0 0.160162 0.0702564 0.0781617 0.186154C-0.00233827 0.302564 -0.0218383 0.450769 0.0251617 0.585128C0.365162 1.57641 0.902162 2.52205 1.61916 3.39538C1.94316 3.78821 2.12116 4.28718 2.12116 4.79795Z" transform="translate(5.783338 4.607692)" id="Fill-1" fill="#00DD8C" stroke="none" />
    <g id="Group-5">
      <path d="M0 0L16.634 0L16.634 19.2831L0 19.2831L0 0Z" transform="translate(0.03 0.2046154)" id="Clip-3" fill="none" stroke="none" />
      <g clip-path="url(#mask_1)">
        <path d="M5.12851 0.43641C5.12851 0.194359 4.93501 0 4.70051 0C4.46401 0 4.27301 0.19641 4.27301 0.43641C4.27301 1.06974 3.90351 1.69641 3.23551 2.20154C1.80601 3.28513 0.73551 4.46103 0.0560099 5.69692C-0.0199901 5.83333 -0.0179901 5.99949 0.0580099 6.13385C0.13401 6.26769 0.27451 6.35231 0.42701 6.35231L8.97201 6.35231C9.12451 6.35231 9.26501 6.26769 9.34101 6.13385C9.41951 5.99949 9.41951 5.83333 9.34501 5.69692C8.66551 4.46103 7.59501 3.28513 6.16551 2.20154C5.49551 1.69641 5.12851 1.06974 5.12851 0.43641Z" transform="translate(3.63149 10.72564)" id="Fill-2" fill="#00DD8C" stroke="none" />
        <path d="M15.8085 17.5303L15.5525 17.5303C15.26 14.1185 13.3125 11.5005 11.799 9.64154C13.3125 7.78256 15.26 5.16462 15.5525 1.75282L15.8085 1.75282C16.281 1.75282 16.664 1.36051 16.664 0.875385C16.664 0.392821 16.281 0 15.8085 0L0.8535 0C0.383 0 0 0.392821 0 0.875385C0 1.36051 0.383 1.75282 0.8535 1.75282L1.1095 1.75282C1.4045 5.16462 3.3495 7.78256 4.865 9.64154C3.3515 11.5005 1.4045 14.1185 1.1095 17.5303L0.8535 17.5303C0.383 17.5303 0 17.921 0 18.4056C0 18.8903 0.383 19.2831 0.8535 19.2831L15.8085 19.2831C16.281 19.2831 16.664 18.8903 16.664 18.4056C16.664 17.921 16.281 17.5303 15.8085 17.5303ZM2.8225 17.5303C3.1445 14.4492 5.0975 12.0754 6.5565 10.3026L6.635 10.2067C6.9045 9.88205 6.9045 9.40308 6.635 9.07641L6.5565 8.98256C5.0975 7.20974 3.1445 4.8359 2.8225 1.75487L13.84 1.75487C13.5195 4.8359 11.5665 7.20974 10.1055 8.98256L10.0295 9.07641C9.76 9.40308 9.76 9.88 10.0295 10.2067L10.1075 10.3026C11.5665 12.0754 13.5195 14.4492 13.84 17.5303L2.8225 17.5303Z" transform="translate(0 0.2046154)" id="Fill-4" fill="#00DD8C" stroke="none" />
      </g>
    </g>
  </g>
</svg>
