<?xml version="1.0" encoding="utf-8"?>
<svg width="29px" height="29px" viewBox="0 0 29 29" version="1.1" xmlns:xlink="http://www.w3.org/1999/xlink" xmlns="http://www.w3.org/2000/svg">
  <defs>
    <path d="M0 0L28.855 0L28.855 28.8623L0 28.8623L0 0Z" transform="translate(0.007341772 0.01541772)" id="path_1" />
    <clipPath id="mask_1">
      <use xlink:href="#path_1" />
    </clipPath>
  </defs>
  <g id="icon/new">
    <g id="close" transform="matrix(0.7071068 -0.7071068 0.7071068 0.7071068 -6.006096 14.5)">
      <g id="Group-3">
        <path d="M0 0L28.855 0L28.855 28.8623L0 28.8623L0 0Z" transform="translate(0.007341772 0.01541772)" id="Clip-2" fill="none" stroke="none" />
        <g clip-path="url(#mask_1)">
          <path d="M14.4312 0C6.47373 0 0 6.47385 0 14.4312C0 22.3886 6.47373 28.8623 14.4312 28.8623C18.179 28.8623 21.7304 27.4323 24.4315 24.8354C24.6652 24.6107 24.6729 24.2389 24.4477 24.0051C24.2231 23.7714 23.8512 23.7637 23.6175 23.9884C21.1362 26.374 17.874 27.6875 14.4312 27.6875C7.1214 27.6875 1.17493 21.7409 1.17493 14.4312C1.17493 7.12152 7.1214 1.17493 14.4312 1.17493C21.7405 1.17493 27.6874 7.12152 27.6874 14.4312C27.6874 16.0798 27.3887 17.6882 26.7994 19.2115C26.6827 19.5141 26.8328 19.8544 27.1354 19.9715C27.4379 20.0881 27.7783 19.9381 27.8954 19.6354C28.5369 17.9765 28.8623 16.2251 28.8623 14.4312C28.8623 6.47385 22.3886 0 14.4312 0Z" transform="translate(0 0.01541772)" id="Fill-1" fill="#10547F" stroke="none" />
        </g>
      </g>
      <path d="M0.998099 0.167396C0.766222 -0.0592198 0.394361 -0.0553042 0.167867 0.176451C-0.0592383 0.408329 -0.0554451 0.78019 0.176433 1.00717L4.8004 5.53313C4.91469 5.64497 5.06275 5.70052 5.21142 5.70052C5.36352 5.70052 5.51598 5.64167 5.63112 5.52408C5.85774 5.29232 5.85383 4.92046 5.62207 4.69335L0.998099 0.167396Z" transform="translate(15.41003 15.52344)" id="Fill-4" fill="#10547F" stroke="none" />
      <path d="M4.60014 5.43074C4.71479 5.54552 4.86542 5.60278 5.01544 5.60278C5.16607 5.60278 5.31609 5.54552 5.43086 5.43074C5.66029 5.20131 5.66029 4.82945 5.43086 4.60002L1.00279 0.172073C0.773364 -0.0573576 0.401503 -0.0573576 0.172073 0.172073C-0.0573576 0.401503 -0.0573576 0.773364 0.172073 1.00279L4.60014 5.43074Z" transform="translate(7.6534 7.66894)" id="Fill-5" fill="#10547F" stroke="none" />
      <path d="M13.3835 0.172073C13.154 -0.0573576 12.7817 -0.0573576 12.5527 0.172073L0.172073 12.5526C-0.0573576 12.7821 -0.0573576 13.1539 0.172073 13.3833C0.286849 13.4976 0.437356 13.555 0.587495 13.555C0.738001 13.555 0.88814 13.4976 1.00279 13.3833L13.3835 1.00279C13.6124 0.773364 13.6124 0.401503 13.3835 0.172073Z" transform="translate(7.6534 7.66894)" id="Fill-6" fill="#10547F" stroke="none" />
    </g>
  </g>
</svg>
