<?xml version="1.0" encoding="utf-8"?>
<svg width="28px" height="28px" viewBox="0 0 27 28" version="1.1" xmlns:xlink="http://www.w3.org/1999/xlink" xmlns="http://www.w3.org/2000/svg">
  <g id="icon_play">
    <g id="close">
      <g id="Group-3">
        <path d="M13.3977 0C6.0101 0 0 6.25062 0 13.9336C0 21.6166 6.0101 27.8671 13.3977 27.8671C16.877 27.8671 20.1741 26.4863 22.6817 23.979C22.8987 23.7621 22.9059 23.403 22.6968 23.1774C22.4883 22.9517 22.143 22.9443 21.9261 23.1612C19.6225 25.4645 16.5939 26.7328 13.3977 26.7328C6.61138 26.7328 1.09078 20.9913 1.09078 13.9336C1.09078 6.87595 6.61138 1.13441 13.3977 1.13441C20.1835 1.13441 25.7045 6.87595 25.7045 13.9336C25.7045 15.5253 25.4272 17.0782 24.8801 18.549C24.7717 18.8412 24.9111 19.1697 25.1921 19.2828C25.4729 19.3954 25.7889 19.2505 25.8976 18.9584C26.4931 17.3566 26.7953 15.6656 26.7953 13.9336C26.7953 6.25062 20.7852 0 13.3977 0Z" transform="translate(0 0.01488608)" id="Fill-1" fill="#10547F" stroke="none" />
      </g>
    </g>
    <path d="M12.1623 5.22426C11.9353 5.08672 11.6367 5.15417 11.4952 5.37475C11.3538 5.59533 11.4231 5.88562 11.6496 6.02307C12.1781 6.34286 12.4934 6.8951 12.4934 7.50019C12.4934 8.10488 12.1781 8.65702 11.6496 8.97721L3.70734 13.7898C3.14695 14.1295 2.46763 14.146 1.89029 13.835C1.31306 13.5233 0.968247 12.9546 0.968247 12.3127L0.968247 2.68717C0.968247 2.04532 1.31306 1.47661 1.89029 1.16525C2.46763 0.853979 3.14695 0.870449 3.70734 1.21005L8.33088 4.01184C8.55786 4.14929 8.85657 4.08184 8.998 3.86126C9.13954 3.64067 9.07013 3.35049 8.84355 3.21294L4.21961 0.411637C3.35658 -0.111488 2.30995 -0.137565 1.42059 0.342325C0.531235 0.821823 0 1.69837 0 2.68717L0 12.3127C0 13.3012 0.531235 14.1782 1.42059 14.6576C1.84419 14.8862 2.30329 15 2.76159 15C3.26519 15 3.76767 14.8625 4.21961 14.5882L12.1623 9.77572C12.9761 9.2824 13.4615 8.43193 13.4615 7.49979C13.4615 6.56805 12.9761 5.71749 12.1623 5.22426Z" transform="translate(7.5 6.2)" id="Fill-1" fill="#10547F" stroke="none" />
  </g>
</svg>
