<?xml version="1.0" encoding="utf-8"?>
<svg width="20px" height="20px" viewBox="0 0 15 20" version="1.1" xmlns:xlink="http://www.w3.org/1999/xlink" xmlns="http://www.w3.org/2000/svg">
  <path d="M7.49998 10.8875C5.41933 10.8875 3.72661 9.25266 3.72661 7.24321C3.72661 5.23379 5.41937 3.59899 7.49998 3.59899C9.58063 3.59899 11.2734 5.23379 11.2734 7.24321C11.2734 9.25266 9.58063 10.8875 7.49998 10.8875ZM7.49998 0C3.36449 0 0 3.2493 0 7.24321C0 12.1998 6.71178 19.4763 6.99754 19.7836C7.26595 20.0724 7.73453 20.0719 8.00246 19.7836C8.28822 19.4763 15 12.1998 15 7.24321C15 3.2493 11.6355 0 7.49998 0L7.49998 0Z" id="maps-and-flags" fill="#00DD8C" stroke="none" />
</svg>
