<svg width="24" height="24" viewBox="0 0 24 24" fill="none" xmlns="http://www.w3.org/2000/svg">
<path d="M23.5 12C23.5 18.3513 18.3513 23.5 12 23.5C5.64873 23.5 0.5 18.3513 0.5 12C0.5 5.64873 5.64873 0.5 12 0.5C18.3513 0.5 23.5 5.64873 23.5 12Z" stroke="#10547F"/>
<mask id="mask0" mask-type="alpha" maskUnits="userSpaceOnUse" x="3" y="3" width="18" height="18">
<path fill-rule="evenodd" clip-rule="evenodd" d="M5.14258 5.14258H18.8569V19.4283H5.14258V5.14258Z" fill="white" stroke="white" stroke-width="3"/>
</mask>
<g mask="url(#mask0)">
<path fill-rule="evenodd" clip-rule="evenodd" d="M18.5777 5.14258H5.42172C5.26747 5.14258 5.14258 5.27273 5.14258 5.43335V19.1376C5.14258 19.298 5.26747 19.4283 5.42172 19.4283H16.6046C16.7587 19.4283 16.8837 19.298 16.8837 19.1376C16.8837 18.9769 16.7587 18.8468 16.6046 18.8468H5.70086V5.72412H18.2986V19.1376C18.2986 19.298 18.4235 19.4283 18.5777 19.4283C18.7317 19.4283 18.8569 19.298 18.8569 19.1376V5.43335C18.8569 5.27273 18.7317 5.14258 18.5777 5.14258Z" fill="#10547F"/>
<path fill-rule="evenodd" clip-rule="evenodd" d="M18.3799 7.42773H7.2409C6.97714 7.42773 6.85742 7.57966 6.85742 7.73726C6.85742 7.89516 6.97714 7.99916 7.2409 7.99916H18.3799C18.6434 7.99916 18.8574 7.87132 18.8574 7.71342C18.8574 7.55582 18.6434 7.42773 18.3799 7.42773Z" fill="#10547F"/>
</g>
</svg>
