<?xml version="1.0" encoding="UTF-8" standalone="no"?>
<svg
   xmlns:dc="http://purl.org/dc/elements/1.1/"
   xmlns:cc="http://creativecommons.org/ns#"
   xmlns:rdf="http://www.w3.org/1999/02/22-rdf-syntax-ns#"
   xmlns:svg="http://www.w3.org/2000/svg"
   xmlns="http://www.w3.org/2000/svg"
   width="50"
   height="31"
   viewBox="0 0 726 428.81381"
   id="svg2"
   version="1.1">
  <ellipse
     cy="214.40689"
     cx="212.23445"
     id="circle3371"
     style="fill:#fc1010;fill-opacity:1;stroke:none;stroke-width:0.990066"
     rx="212.23444"
     ry="214.40692" />
  <ellipse
     style="fill:#cf7914;fill-opacity:1;stroke:none;stroke-width:0.992447"
     id="circle3373"
     cx="512.74579"
     cy="214.40689"
     rx="213.2542"
     ry="214.40692" />
  <path
     style="fill:#aa0805;fill-opacity:1;stroke:none;stroke-width:2.8373"
     d="M 362.15937,62.646586 C 323.46372,101.46061 299.4728,155.14476 299.4728,214.44239 c 0,59.29708 23.99155,112.89317 62.68657,151.70712 38.51017,-38.81395 62.33218,-92.41004 62.33218,-151.70712 0,-59.29763 -23.82116,-112.98178 -62.33218,-151.795804 z"
     id="path3375" />
  <g
     style="font-style:normal;font-weight:bold;font-size:15px;font-family:TeXGyreAdventor;text-align:start;text-anchor:start;fill:#ffffff"
     id="text3047"
     transform="translate(694.15269,233.7772)">
    <path
       id="path3059"
       style="font-style:normal;font-weight:bold;font-size:15px;font-family:TeXGyreAdventor;text-align:start;text-anchor:start;fill:#ffffff"
       d="M 5.2349326,8.8070094 V 7.3670279 H 0.80998957 V 8.8070094 H 2.174972 V 13.846945 H 3.8699502 V 8.8070094 Z M 14.189817,7.3670279 H 12.044845 L 10.199869,11.761971 8.3248928,7.3670279 H 6.1799204 V 13.846945 H 7.8748986 V 9.9019953 L 9.5248774,13.846945 H 10.84486 l 1.649979,-3.9449497 v 3.9449497 h 1.694978 z M -21.74309,-50.02119 c -2.95663,-1.89365 -8.22715,-5.55468 -17.22561,-5.55468 -10.4125,0 -20.0537,5.0497 -26.22407,13.12922 -6.94167,8.9632 -7.58441,18.30515 -7.58441,22.3449 0,14.64413 8.22715,23.73359 12.08364,27.26837 8.09861,7.32206 16.06867,8.20576 20.56789,8.20576 10.15541,0 15.81158,-4.41848 19.02532,-6.81709 l 0.12855,5.30219 h 20.0537 v -89.12716 h -20.82501 z m -25.70986,40.90254 c -2.95664,-3.02981 -4.62779,-6.94333 -4.62779,-10.9831 0,-8.45823 6.94167,-15.40157 15.68303,-15.40157 8.6128,-0.12624 15.68302,6.8171 15.68302,15.40157 0,8.45825 -6.94167,15.40159 -15.68302,15.40159 -4.11358,0 -8.22716,-1.7674 -11.05524,-4.41849 z m -64.14118,-45.06855 v 68.04468 h 20.95356 V -24.1415 c 0.12854,-3.40855 0.51419,-4.79721 1.54259,-6.31213 3.21373,-4.79721 11.4409,-5.04969 12.08364,-5.04969 1.67114,-0.12624 2.95664,0.12624 4.37068,0.25248 v -19.18884 c -2.69954,0 -9.6412,-0.50498 -15.81157,5.55466 -1.67115,1.64115 -3.21374,3.66104 -3.59939,4.166 v -9.46818 z m -28.46673,4.03975 c -2.82809,-1.89363 -8.22717,-5.55466 -17.22563,-5.55466 -10.41249,0 -19.92515,5.0497 -26.22407,13.12921 -6.81311,9.08945 -7.58441,18.30516 -7.58441,22.34491 0,14.64413 8.22717,23.73358 12.21219,27.26837 8.09862,7.32206 16.06868,8.20576 20.43936,8.20576 10.28394,0 15.81157,-4.41848 19.15385,-6.81709 v 5.42843 h 20.18225 v -68.17092 h -20.95354 z m -25.58133,40.90256 c -3.08519,-2.90357 -4.75633,-6.81709 -4.75633,-10.85686 0,-8.45823 7.07021,-15.52781 15.68302,-15.52781 8.74136,0 15.68302,6.94334 15.81157,15.40157 0,8.58449 -6.94166,15.40158 -15.68302,15.52783 -4.11358,0 -8.22715,-1.7674 -11.05524,-4.54473 z m -26.47823,-32.69679 c -1.54259,-5.17595 -4.75632,-15.65406 -15.94012,-24.61727 -11.95509,-9.59444 -24.03873,-10.60437 -29.952,-10.60437 -11.56945,0 -19.92515,3.91351 -23.65308,6.05964 -7.32732,4.29223 -23.52454,16.79024 -23.52454,41.02879 0,12.75048 4.88488,20.95624 7.84151,25.12224 4.62777,6.56461 16.83997,20.45128 39.8503,20.45128 5.27053,0 9.3841,-0.75746 11.31235,-1.26243 6.42747,-1.51491 20.95354,-7.06958 29.6949,-22.97612 1.41405,-2.6511 2.57099,-5.17595 4.49923,-10.98309 h -25.19567 c -1.41404,2.27236 -1.92825,3.02982 -2.82809,4.16599 -3.47084,4.03976 -8.48426,6.31213 -9.8983,6.8171 -1.5426,0.50496 -4.11358,1.26243 -7.84151,1.26243 -14.01188,0 -20.43935,-10.35189 -22.23904,-14.51789 -0.64275,-1.51491 -1.67114,-4.41849 -1.79969,-8.71073 0,-9.34194 5.39907,-17.80017 14.26898,-21.46121 1.67114,-0.75745 5.01342,-2.01988 9.76975,-2.01988 7.32731,0 13.88333,3.15606 18.25401,8.83697 0.7713,1.13618 1.54259,2.14612 2.18533,3.40855 z M -324.90695,-54.1872 v 68.04468 h 20.95356 V -24.1415 c 0.12854,-3.40855 0.51419,-4.79721 1.54259,-6.31213 3.21373,-4.79721 11.44089,-5.04969 12.08364,-5.04969 1.67114,-0.12624 2.95664,0.12624 4.37067,0.25248 v -19.18884 c -2.69953,0 -9.6412,-0.50498 -15.81157,5.55466 -1.67114,1.64115 -3.21373,3.66104 -3.59938,4.166 v -9.46818 z m -53.74598,26.00594 c 0.64276,-1.26242 1.2855,-2.39861 2.3139,-3.40854 0.25709,-0.37874 1.54259,-1.76739 3.08518,-2.65109 3.08519,-2.14612 6.29892,-3.15606 10.02685,-3.15606 9.8983,0 13.88333,6.18587 15.55447,9.21569 z m 50.777,14.89661 c 0.2571,-2.39861 0.51421,-4.67097 0.51421,-7.06958 0,-10.22564 -5.01344,-20.32503 -12.85495,-26.7634 -8.99845,-7.57454 -19.0253,-8.45824 -23.13888,-8.45824 -10.6696,0 -21.0821,4.79722 -27.89521,12.87673 -7.45587,8.83697 -8.35571,18.30516 -8.35571,22.59739 0,10.47813 5.01343,20.83001 13.11203,27.39461 9.12701,7.32206 19.02531,8.07952 23.39599,8.07952 13.36913,0 21.21064,-6.43836 24.81002,-9.97315 5.27053,-5.0497 7.07022,-9.46818 8.35572,-12.37176 h -21.46775 c -1.28549,1.26243 -1.79969,1.64115 -2.69954,2.14612 -2.44243,1.64116 -5.91327,2.39861 -8.99845,2.39861 -5.52762,0 -10.79815,-2.27236 -14.14043,-6.69085 -1.15695,-1.5149 -2.31389,-3.91352 -2.44243,-4.166 z m -102.10422,-61.98503 v 20.70376 h -7.71297 v 15.90654 h 7.45587 v 52.51686 h 21.08209 v -52.39062 h 8.99845 v -15.90654 h -8.8699 v -20.83 z m -7.90285,41.02879 c -0.12855,-1.00995 -0.12855,-3.66103 -1.15694,-6.56461 -1.92825,-5.80715 -8.22716,-14.77037 -23.78164,-14.77037 -9.64119,0 -19.66805,4.16601 -24.29583,13.00297 -1.02839,1.7674 -2.31388,4.79722 -2.31388,9.72067 0,2.52486 0.2571,8.45825 5.39907,13.50794 2.82808,2.6511 6.42747,4.67097 14.39753,6.69085 5.52762,1.38867 8.6128,1.76739 10.54105,4.03976 0.89984,1.26243 1.15694,2.65109 1.15694,3.2823 0,1.51491 -1.15694,5.30219 -5.78471,5.42843 -0.51421,0 -1.92825,-0.12624 -3.21375,-0.8837 -2.95662,-1.51491 -3.08518,-4.79721 -3.34228,-5.80715 h -21.08209 c 0.2571,1.5149 0.5142,5.17594 2.57098,8.96321 1.2855,2.52485 3.34228,4.79721 5.52763,6.56461 3.34228,2.77733 9.25555,6.43836 19.53951,6.43836 12.08363,0 19.0253,-5.17594 22.23903,-8.71073 5.27052,-5.55467 5.65618,-11.10933 5.65618,-14.26539 0,-6.18587 -2.18535,-11.23558 -7.45587,-14.89661 -4.62778,-3.40854 -8.99846,-4.41848 -14.39753,-5.68091 -4.11358,-1.13618 -6.81312,-1.89363 -8.35571,-2.90357 -1.41404,-1.00995 -2.31388,-2.52486 -2.31388,-4.41849 0,-2.77734 2.05678,-5.17594 5.01342,-5.17594 0.89984,0 1.92824,0.25249 2.69954,0.75745 2.18533,1.26243 2.57098,3.2823 2.82808,5.68092 z m -78.08679,-15.90656 c -2.82809,-1.89363 -8.22716,-5.55466 -17.22561,-5.55466 -10.41251,0 -19.92516,5.0497 -26.22407,13.12921 -6.81313,9.08945 -7.58442,18.30516 -7.58442,22.34491 0,14.64413 8.22716,23.73358 12.21219,27.26837 8.09861,7.32206 16.06867,8.20576 20.43935,8.20576 10.28395,0 15.81157,-4.41848 19.15385,-6.81709 v 5.42843 h 20.18226 v -68.17092 h -20.95355 z m -25.58133,40.90256 c -3.08518,-2.90357 -4.75632,-6.81709 -4.75632,-10.85686 0,-8.45823 7.07022,-15.52781 15.68302,-15.52781 8.74136,0 15.68303,6.94334 15.81158,15.40157 0,8.58449 -6.94168,15.40158 -15.68304,15.52783 -4.11357,0 -8.22715,-1.7674 -11.05524,-4.54473 z m -128.15876,-66.02479 v 89.12716 h 20.82499 v -35.0954 c -0.12855,-8.20576 -0.38565,-16.28528 -0.5142,-24.3648 1.92824,6.05964 3.85649,12.24553 5.65618,18.05267 1.54259,4.67098 2.95663,8.96321 4.37067,13.25546 l 9.64121,28.15207 h 16.71142 c 1.92824,-5.55468 3.85647,-11.23559 5.78471,-16.79025 2.3139,-6.56461 4.62778,-13.25546 6.81312,-19.82006 2.57098,-7.82704 5.01343,-15.65407 7.45587,-23.4811 -0.25711,7.95327 -0.51421,16.0328 -0.51421,24.11231 v 35.9791 h 21.72485 v -89.12716 h -30.85185 c -1.54259,4.67096 -3.08519,9.46817 -4.75633,14.26539 -2.05678,6.43837 -4.37068,12.87673 -6.42746,19.44133 -2.44243,7.70079 -4.75633,15.27534 -6.94166,22.84988 -2.44245,-7.70079 -4.75633,-15.40157 -7.32732,-23.2286 -3.59938,-11.10933 -7.32731,-22.21867 -11.1838,-33.328 z" />
  </g>
</svg>
