<svg width="40" height="40" viewBox="0 0 40 40" fill="none" xmlns="http://www.w3.org/2000/svg">
<mask id="mask0" mask-type="alpha" maskUnits="userSpaceOnUse" x="0" y="0" width="40" height="40">
<path fill-rule="evenodd" clip-rule="evenodd" d="M16.5703 0.516113L0.590472 23.3377L23.4179 39.3216L39.3977 16.5L16.5703 0.516113Z" fill="white"/>
</mask>
<g mask="url(#mask0)">
<path fill-rule="evenodd" clip-rule="evenodd" d="M8.58223 11.924C12.9891 5.63036 21.6944 4.09546 27.988 8.50224C34.2815 12.909 35.8165 21.6143 31.4096 27.9079C29.3341 30.872 26.2363 32.8889 22.6866 33.587C22.3794 33.6474 22.0811 33.4476 22.0209 33.1401C21.9605 32.833 22.1603 32.5346 22.4674 32.4742C25.7283 31.8329 28.5738 29.9802 30.4805 27.2573C34.5286 21.4759 33.1186 13.4796 27.3373 9.4315C21.556 5.38339 13.5597 6.79328 9.51149 12.5747C5.46366 18.3556 6.87343 26.3523 12.6547 30.4004C13.9586 31.3134 15.3961 31.9678 16.9272 32.3453C17.2312 32.4206 17.4172 32.7278 17.3422 33.032C17.2669 33.3358 16.9598 33.5219 16.6556 33.447C14.9882 33.0355 13.4228 32.323 12.0041 31.3296C5.71052 26.9228 4.17545 18.2175 8.58223 11.924Z" fill="white"/>
</g>
<path fill-rule="evenodd" clip-rule="evenodd" d="M22.7643 17.4799H23.2848C23.4757 17.4799 23.6321 17.3238 23.6321 17.1329C23.6321 16.9418 23.4757 16.7856 23.2848 16.7856H22.7643C22.5731 16.7856 22.417 16.9418 22.417 17.1329C22.417 17.3238 22.5731 17.4799 22.7643 17.4799Z" fill="white" stroke="white" stroke-width="0.3"/>
<path fill-rule="evenodd" clip-rule="evenodd" d="M27.9018 14.3906C27.7801 14.1476 27.5373 14.0088 27.277 14.0088H12.6979C12.4375 14.0088 12.1945 14.1649 12.0732 14.3906C11.9515 14.6336 11.9863 14.9114 12.1426 15.1196L18.2691 22.8255V27.8414C18.2691 28.1018 18.4081 28.3274 18.6338 28.4488C18.7378 28.5009 18.842 28.5357 18.9634 28.5357C19.1021 28.5357 19.2412 28.5009 19.3625 28.4143L21.289 27.0779C21.5668 26.8696 21.7229 26.5571 21.7229 26.2274V22.8081L27.8322 15.1196C27.9884 14.9114 28.0231 14.6336 27.9018 14.3906ZM21.0981 22.4785C21.0634 22.5306 21.0289 22.5999 21.0289 22.6868V26.2101C21.0289 26.3314 20.9767 26.4357 20.8899 26.505L18.9634 27.8414V22.6868C18.9634 22.5654 18.9113 22.4611 18.8246 22.409L14.9022 17.48H21.2024C21.3933 17.48 21.5494 17.3238 21.5494 17.133C21.5494 16.9418 21.3933 16.7857 21.2024 16.7857H14.364L12.6979 14.7031H27.277L21.0981 22.4785Z" fill="white"/>
<path d="M27.9018 14.3906L28.036 14.3235L28.0359 14.3234L27.9018 14.3906ZM12.0732 14.3906L11.941 14.3195L11.939 14.3234L12.0732 14.3906ZM12.1426 15.1196L12.0226 15.2097L12.0252 15.2129L12.1426 15.1196ZM18.2691 22.8255H18.4191V22.7732L18.3865 22.7322L18.2691 22.8255ZM18.6338 28.4488L18.5627 28.581L18.5666 28.5829L18.6338 28.4488ZM19.3625 28.4143L19.277 28.2911L19.2754 28.2922L19.3625 28.4143ZM21.289 27.0779L21.3746 27.2012L21.379 27.1979L21.289 27.0779ZM21.7229 22.8081L21.6055 22.7148L21.5729 22.7558V22.8081H21.7229ZM27.8322 15.1196L27.9497 15.2129L27.9522 15.2096L27.8322 15.1196ZM21.0981 22.4785L20.9803 22.3848L20.9733 22.3952L21.0981 22.4785ZM20.8899 26.505L20.9756 26.6285L20.9834 26.6222L20.8899 26.505ZM18.9634 27.8414H18.8134V28.128L19.0489 27.9647L18.9634 27.8414ZM18.8246 22.409L18.7072 22.5024L18.7241 22.5236L18.7473 22.5376L18.8246 22.409ZM14.9022 17.48V17.33H14.5911L14.7848 17.5734L14.9022 17.48ZM14.364 16.7857L14.2469 16.8794L14.2919 16.9357H14.364V16.7857ZM12.6979 14.7031V14.5531H12.3858L12.5808 14.7968L12.6979 14.7031ZM27.277 14.7031L27.3944 14.7964L27.5877 14.5531H27.277V14.7031ZM28.0359 14.3234C27.8875 14.027 27.5911 13.8588 27.277 13.8588V14.1588C27.4836 14.1588 27.6727 14.2682 27.7676 14.4577L28.0359 14.3234ZM27.277 13.8588H12.6979V14.1588H27.277V13.8588ZM12.6979 13.8588C12.3786 13.8588 12.0868 14.0487 11.9411 14.3195L12.2053 14.4616C12.3023 14.2812 12.4965 14.1588 12.6979 14.1588V13.8588ZM11.939 14.3234C11.7905 14.6201 11.834 14.9585 12.0227 15.2096L12.2626 15.0295C12.1385 14.8643 12.1125 14.6471 12.2073 14.4577L11.939 14.3234ZM12.0252 15.2129L18.1517 22.9189L18.3865 22.7322L12.26 15.0262L12.0252 15.2129ZM18.1191 22.8255V27.8414H18.4191V22.8255H18.1191ZM18.1191 27.8414C18.1191 28.1582 18.2894 28.4339 18.5627 28.5809L18.7048 28.3167C18.5267 28.2209 18.4191 28.0454 18.4191 27.8414H18.1191ZM18.5666 28.5829C18.6832 28.6414 18.8109 28.6857 18.9634 28.6857V28.3857C18.873 28.3857 18.7923 28.3605 18.7009 28.3147L18.5666 28.5829ZM18.9634 28.6857C19.1274 28.6857 19.2984 28.6444 19.4497 28.5364L19.2754 28.2922C19.184 28.3575 19.0769 28.3857 18.9634 28.3857V28.6857ZM19.448 28.5376L21.3745 27.2011L21.2035 26.9546L19.277 28.2911L19.448 28.5376ZM21.379 27.1979C21.6935 26.9621 21.8729 26.6056 21.8729 26.2274H21.5729C21.5729 26.5086 21.4401 26.7771 21.1991 26.9579L21.379 27.1979ZM21.8729 26.2274V22.8081H21.5729V26.2274H21.8729ZM21.8404 22.9015L27.9497 15.2129L27.7148 15.0263L21.6055 22.7148L21.8404 22.9015ZM27.9522 15.2096C28.1406 14.9584 28.1841 14.6201 28.036 14.3235L27.7676 14.4576C27.8622 14.6471 27.8362 14.8643 27.7122 15.0296L27.9522 15.2096ZM20.9733 22.3952C20.9303 22.4598 20.8789 22.5583 20.8789 22.6868H21.1789C21.1789 22.6414 21.1964 22.6014 21.2229 22.5617L20.9733 22.3952ZM20.8789 22.6868V26.2101H21.1789V22.6868H20.8789ZM20.8789 26.2101C20.8789 26.2863 20.8471 26.3472 20.7964 26.3877L20.9834 26.6222C21.1064 26.5242 21.1789 26.3766 21.1789 26.2101H20.8789ZM20.8044 26.3817L18.8779 27.7182L19.0489 27.9647L20.9754 26.6282L20.8044 26.3817ZM19.1134 27.8414V22.6868H18.8134V27.8414H19.1134ZM19.1134 22.6868C19.1134 22.525 19.0433 22.3655 18.9019 22.2805L18.7473 22.5376C18.7793 22.5568 18.8134 22.6057 18.8134 22.6868H19.1134ZM18.942 22.3156L15.0195 17.3866L14.7848 17.5734L18.7072 22.5024L18.942 22.3156ZM14.9022 17.63H21.2024V17.33H14.9022V17.63ZM21.2024 17.63C21.4761 17.63 21.6994 17.4067 21.6994 17.133H21.3994C21.3994 17.241 21.3104 17.33 21.2024 17.33V17.63ZM21.6994 17.133C21.6994 16.8591 21.4762 16.6357 21.2024 16.6357V16.9357C21.3104 16.9357 21.3994 17.0246 21.3994 17.133H21.6994ZM21.2024 16.6357H14.364V16.9357H21.2024V16.6357ZM14.4812 16.692L12.815 14.6094L12.5808 14.7968L14.2469 16.8794L14.4812 16.692ZM12.6979 14.8531H27.277V14.5531H12.6979V14.8531ZM27.1595 14.6098L20.9807 22.3852L21.2156 22.5718L27.3944 14.7964L27.1595 14.6098Z" fill="white"/>
</svg>
