<svg width="28" height="29" viewBox="0 0 28 29" fill="none" xmlns="http://www.w3.org/2000/svg">
<path fill-rule="evenodd" clip-rule="evenodd" d="M2.58223 6.9245C6.9891 0.63085 15.6944 -0.90405 21.988 3.50273C28.2815 7.9095 29.8165 16.6148 25.4096 22.9084C23.3341 25.8725 20.2363 27.8894 16.6866 28.5875C16.3794 28.6479 16.0811 28.4481 16.0209 28.1406C15.9605 27.8335 16.1603 27.5351 16.4674 27.4747C19.7283 26.8334 22.5738 24.9807 24.4805 22.2578C28.5286 16.4764 27.1186 8.4801 21.3373 4.43199C15.556 0.383879 7.5597 1.79377 3.51149 7.5752C-0.536341 13.3561 0.87343 21.3528 6.6547 25.4009C7.9586 26.3138 9.3961 26.9683 10.9272 27.3458C11.2312 27.4211 11.4172 27.7283 11.3422 28.0325C11.2669 28.3363 10.9598 28.5224 10.6556 28.4475C8.9882 28.036 7.4228 27.3235 6.0041 26.3301C-0.289481 21.9233 -1.82455 13.218 2.58223 6.9245Z" fill="white"/>
</svg>
