<?xml version="1.0" encoding="utf-8"?>
<svg width="46px" height="46px" viewBox="0 0 46 46" version="1.1" xmlns:xlink="http://www.w3.org/1999/xlink" xmlns="http://www.w3.org/2000/svg">
  <g id="add">
    <path d="M2 0L44 0Q44.1025 0 44.2034 0.00932124Q44.3044 0.0186425 44.4029 0.037209Q44.5014 0.0557754 44.5967 0.0834357Q44.692 0.111096 44.7833 0.147624Q44.8747 0.184153 44.9612 0.229252Q45.0478 0.27435 45.129 0.327651Q45.2101 0.380953 45.2852 0.442021Q45.3602 0.50309 45.4286 0.571429Q45.4969 0.639767 45.558 0.714818Q45.6191 0.789868 45.6724 0.871019Q45.7257 0.95217 45.7708 1.03876Q45.8158 1.12535 45.8524 1.21667Q45.8889 1.30799 45.9166 1.4033Q45.9442 1.49861 45.9628 1.59713Q45.9814 1.69564 45.9907 1.79657Q46 1.89749 46 2L46 2Q46 2.10251 45.9907 2.20343Q45.9814 2.30436 45.9628 2.40288Q45.9442 2.50139 45.9166 2.5967Q45.8889 2.69201 45.8524 2.78333Q45.8159 2.87465 45.7708 2.96124Q45.7257 3.04783 45.6724 3.12898Q45.6191 3.21013 45.558 3.28518Q45.4969 3.36023 45.4286 3.42857Q45.3602 3.49691 45.2852 3.55798Q45.2101 3.61905 45.129 3.67235Q45.0478 3.72565 44.9612 3.77075Q44.8747 3.81585 44.7833 3.85238Q44.692 3.8889 44.5967 3.91656Q44.5014 3.94422 44.4029 3.96279Q44.3044 3.98136 44.2034 3.99068Q44.1025 4 44 4L2 4Q1.89749 4 1.79657 3.99068Q1.69564 3.98136 1.59713 3.96279Q1.49861 3.94422 1.4033 3.91656Q1.30799 3.8889 1.21667 3.85238Q1.12535 3.81585 1.03876 3.77075Q0.95217 3.72565 0.871019 3.67235Q0.789868 3.61905 0.714818 3.55798Q0.639767 3.49691 0.571429 3.42857Q0.50309 3.36023 0.442021 3.28518Q0.380953 3.21013 0.327651 3.12898Q0.27435 3.04783 0.229252 2.96124Q0.184153 2.87465 0.147624 2.78333Q0.111096 2.69201 0.0834357 2.5967Q0.0557754 2.50139 0.037209 2.40288Q0.0186425 2.30436 0.00932124 2.20343Q0 2.10251 0 2L0 2Q0 1.89749 0.00932124 1.79657Q0.0186425 1.69564 0.037209 1.59713Q0.0557754 1.49861 0.0834357 1.4033Q0.111096 1.30799 0.147624 1.21667Q0.184153 1.12535 0.229252 1.03876Q0.27435 0.95217 0.327651 0.871019Q0.380953 0.789868 0.442021 0.714818Q0.50309 0.639767 0.571429 0.571429Q0.639767 0.50309 0.714818 0.442021Q0.789868 0.380953 0.871019 0.327651Q0.95217 0.27435 1.03876 0.229252Q1.12535 0.184153 1.21667 0.147624Q1.30799 0.111096 1.4033 0.0834357Q1.49861 0.0557754 1.59713 0.037209Q1.69564 0.0186425 1.79657 0.00932124Q1.89749 0 2 0Z" transform="translate(0 21)" id="Rectangle-4" fill="#00DD8C" stroke="none" />
    <path d="M2 0L44 0Q44.1025 0 44.2034 0.00932124Q44.3044 0.0186425 44.4029 0.037209Q44.5014 0.0557754 44.5967 0.0834357Q44.692 0.111096 44.7833 0.147624Q44.8747 0.184153 44.9612 0.229252Q45.0478 0.27435 45.129 0.327651Q45.2101 0.380953 45.2852 0.442021Q45.3602 0.50309 45.4286 0.571429Q45.4969 0.639767 45.558 0.714818Q45.6191 0.789868 45.6724 0.871019Q45.7257 0.95217 45.7708 1.03876Q45.8158 1.12535 45.8524 1.21667Q45.8889 1.30799 45.9166 1.4033Q45.9442 1.49861 45.9628 1.59713Q45.9814 1.69564 45.9907 1.79657Q46 1.89749 46 2L46 2Q46 2.10251 45.9907 2.20343Q45.9814 2.30436 45.9628 2.40288Q45.9442 2.50139 45.9166 2.5967Q45.8889 2.69201 45.8524 2.78333Q45.8159 2.87465 45.7708 2.96124Q45.7257 3.04783 45.6724 3.12898Q45.6191 3.21013 45.558 3.28518Q45.4969 3.36023 45.4286 3.42857Q45.3602 3.49691 45.2852 3.55798Q45.2101 3.61905 45.129 3.67235Q45.0478 3.72565 44.9612 3.77075Q44.8747 3.81585 44.7833 3.85238Q44.692 3.8889 44.5967 3.91656Q44.5014 3.94422 44.4029 3.96279Q44.3044 3.98136 44.2034 3.99068Q44.1025 4 44 4L2 4Q1.89749 4 1.79657 3.99068Q1.69564 3.98136 1.59713 3.96279Q1.49861 3.94422 1.4033 3.91656Q1.30799 3.8889 1.21667 3.85238Q1.12535 3.81585 1.03876 3.77075Q0.95217 3.72565 0.871019 3.67235Q0.789868 3.61905 0.714818 3.55798Q0.639767 3.49691 0.571429 3.42857Q0.50309 3.36023 0.442021 3.28518Q0.380953 3.21013 0.327651 3.12898Q0.27435 3.04783 0.229252 2.96124Q0.184153 2.87465 0.147624 2.78333Q0.111096 2.69201 0.0834357 2.5967Q0.0557754 2.50139 0.037209 2.40288Q0.0186425 2.30436 0.00932124 2.20343Q0 2.10251 0 2L0 2Q0 1.89749 0.00932124 1.79657Q0.0186425 1.69564 0.037209 1.59713Q0.0557754 1.49861 0.0834357 1.4033Q0.111096 1.30799 0.147624 1.21667Q0.184153 1.12535 0.229252 1.03876Q0.27435 0.95217 0.327651 0.871019Q0.380953 0.789868 0.442021 0.714818Q0.50309 0.639767 0.571429 0.571429Q0.639767 0.50309 0.714818 0.442021Q0.789868 0.380953 0.871019 0.327651Q0.95217 0.27435 1.03876 0.229252Q1.12535 0.184153 1.21667 0.147624Q1.30799 0.111096 1.4033 0.0834357Q1.49861 0.0557754 1.59713 0.037209Q1.69564 0.0186425 1.79657 0.00932124Q1.89749 0 2 0Z" transform="matrix(-4.371139E-08 1 -1 -4.371139E-08 25 0)" id="Rectangle-4" fill="#00DD8C" stroke="none" />
  </g>
</svg>
