<?xml version="1.0" encoding="utf-8"?>
<svg width="28px" height="28px" viewBox="0 0 28 28" version="1.1" xmlns:xlink="http://www.w3.org/1999/xlink" xmlns="http://www.w3.org/2000/svg">
  <defs>
    <path d="M0 0L27.86 0L27.86 27.8671L0 27.8671L0 0Z" transform="translate(0.007088608 0.01488608)" id="path_1" />
    <rect width="28" height="28" id="artboard_1" />
    <clipPath id="clip_1">
      <use xlink:href="#artboard_1" clip-rule="evenodd" />
    </clipPath>
    <clipPath id="mask_1">
      <use xlink:href="#path_1" />
    </clipPath>
  </defs>
  <g id="icon/filter" clip-path="url(#clip_1)">
    <use xlink:href="#artboard_1" stroke="none" fill="#FFFFFF" fill-opacity="0" />
    <g id="close" transform="matrix(1 2.636767E-07 2.636767E-07 -1 -0.002082578 28)">
      <g id="Group-3">
        <path d="M0 0L27.86 0L27.86 27.8671L0 27.8671L0 0Z" transform="translate(0.007088608 0.01488608)" id="Clip-2" fill="none" stroke="none" />
        <g clip-path="url(#mask_1)">
          <path d="M13.9336 0C6.2505 0 0 6.25062 0 13.9336C0 21.6166 6.2505 27.8671 13.9336 27.8671C17.5521 27.8671 20.9811 26.4863 23.589 23.979C23.8146 23.7621 23.8221 23.403 23.6047 23.1774C23.3878 22.9517 23.0288 22.9443 22.8031 23.1612C20.4074 25.4645 17.2577 26.7328 13.9336 26.7328C6.87583 26.7328 1.13441 20.9913 1.13441 13.9336C1.13441 6.87595 6.87583 1.13441 13.9336 1.13441C20.9908 1.13441 26.7327 6.87595 26.7327 13.9336C26.7327 15.5253 26.4443 17.0782 25.8753 18.549C25.7626 18.8412 25.9076 19.1697 26.1997 19.2828C26.4918 19.3954 26.8205 19.2505 26.9335 18.9584C27.5528 17.3566 27.8671 15.6656 27.8671 13.9336C27.8671 6.25062 21.6166 0 13.9336 0Z" transform="translate(0 0.01488608)" id="Fill-1" fill="#10547F" stroke="none" />
        </g>
      </g>
    </g>
    <g id="garbage-(2)" transform="translate(6 5)">
      <path d="M15.4349 2.57801L11.7078 2.57801L11.7078 1.97038C11.7078 0.883841 10.824 0 9.73749 0L6.19453 0C5.10818 0 4.22434 0.883841 4.22434 1.97038L4.22434 2.57801L0.497233 2.57801C0.221018 2.57801 0 2.79902 0 3.07524C0 3.35145 0.221018 3.57247 0.497233 3.57247L1.39581 3.57247L1.39581 15.2544C1.39581 16.7202 2.58896 17.9135 4.05474 17.9135L11.8772 17.9135C13.343 17.9135 14.5364 16.7202 14.5364 15.2544L14.5364 3.57247L15.4349 3.57247C15.7111 3.57247 15.932 3.35145 15.932 3.07524C15.932 2.79902 15.7111 2.57801 15.4349 2.57801ZM5.21857 1.97038C5.21857 1.43268 5.65683 0.994465 6.19453 0.994465L9.73749 0.994465C10.2751 0.994465 10.7134 1.43268 10.7134 1.97038L10.7134 2.57801L5.21857 2.57801L5.21857 1.97038ZM13.5419 15.2544C13.5419 16.1715 12.7944 16.9191 11.8772 16.9191L4.05474 16.9191C3.1378 16.9191 2.39027 16.1715 2.39027 15.2544L2.39027 3.57247L13.5455 3.57247L13.5455 15.2544L13.5419 15.2544Z" transform="translate(0 0.04051151)" id="Fill-1" fill="#10547F" stroke="none" />
      <path d="M0.497233 9.78173C0.773448 9.78173 0.994465 9.56072 0.994465 9.2845L0.994465 0.497233C0.994465 0.221018 0.773448 0 0.497233 0C0.221018 0 0 0.221018 0 0.497233L0 9.28091C0 9.55713 0.221018 9.78173 0.497233 9.78173Z" transform="translate(7.468757 5.395396)" id="Fill-2" fill="#10547F" stroke="none" />
      <path d="M0.497049 8.68783C0.773263 8.68783 0.994235 8.46681 0.994235 8.1906L0.994235 0.497233C0.994235 0.221018 0.773263 0 0.497049 0C0.220834 0 0 0.221018 0 0.497233L0 8.1906C0 8.46681 0.224609 8.68783 0.497049 8.68783Z" transform="translate(4.224338 5.94046)" id="Fill-3" fill="#10547F" stroke="none" />
      <path d="M0.497233 8.68783C0.773448 8.68783 0.994419 8.46681 0.994419 8.1906L0.994419 0.497233C0.994419 0.221018 0.773448 0 0.497233 0C0.221018 0 0 0.221018 0 0.497233L0 8.1906C0 8.46681 0.221018 8.68783 0.497233 8.68783Z" transform="translate(10.71341 5.94046)" id="Fill-4" fill="#10547F" stroke="none" />
    </g>
  </g>
</svg>
