<svg width="33" height="34" viewBox="0 0 33 34" fill="none" xmlns="http://www.w3.org/2000/svg">
<path fill-rule="evenodd" clip-rule="evenodd" d="M10.0742 26.8892C4.60912 23.4742 2.95444 16.2289 6.38546 10.7382C9.81648 5.24739 17.0538 3.55856 22.5189 6.97351C22.7414 7.11256 22.8087 7.40726 22.669 7.63084C22.529 7.85484 22.2348 7.9232 22.0123 7.78415C16.9921 4.64715 10.3441 6.19852 7.19238 11.2424C4.04062 16.2863 5.56052 22.9415 10.5808 26.0785C15.6006 29.2152 22.2489 27.664 25.4006 22.6202C27.3624 19.4807 27.5904 15.6126 26.01 12.2725C25.8974 12.0348 25.9993 11.7499 26.2369 11.636C26.4746 11.5223 26.7586 11.6232 26.8711 11.8608C28.5912 15.496 28.343 19.7069 26.2075 23.1244C22.7765 28.6152 15.5391 30.3041 10.0742 26.8892Z" fill="white"/>
<path fill-rule="evenodd" clip-rule="evenodd" d="M11.204 19.7936C11.1464 19.8508 11.1052 19.9229 11.0852 20.0012L10.4638 22.3936C10.4233 22.5504 10.4682 22.7168 10.5827 22.8312C10.6696 22.9177 10.7858 22.9648 10.9054 22.9648C10.9436 22.9648 10.9823 22.96 11.0201 22.9504L13.4126 22.329C13.4913 22.3087 13.563 22.2674 13.6206 22.2099L20.8578 14.9727C20.8582 14.9727 22.3155 13.5151 22.3155 13.5151C22.4938 13.3368 22.4938 13.0479 22.3155 12.8696L20.5447 11.0985C20.4589 11.0128 20.3431 10.9648 20.222 10.9648C20.1009 10.9648 19.9847 11.0128 19.8993 11.0985L18.4424 12.5555C18.442 12.5555 11.204 19.7936 11.204 19.7936ZM12.8678 21.7024L11.3063 22.1077L11.7117 20.5466L18.7219 13.5363L19.8777 14.6925L12.8678 21.7024ZM19.9715 12.2393L21.1695 13.3696L20.4216 14.1175L19.2512 13.0147L19.9715 12.2393Z" fill="white"/>
</svg>
