<?xml version="1.0" encoding="utf-8"?>
<svg width="28px" height="28px" viewBox="0 0 28 28" version="1.1" xmlns:xlink="http://www.w3.org/1999/xlink" xmlns="http://www.w3.org/2000/svg">
  <defs>
    <path d="M0 0L27.86 0L27.86 27.8671L0 27.8671L0 0Z" id="path_1" />
    <clipPath id="mask_1">
      <use xlink:href="#path_1" />
    </clipPath>
  </defs>
  <g id="close">
    <g id="Group-3">
      <path d="M0 0L27.86 0L27.86 27.8671L0 27.8671L0 0Z" id="Clip-2" fill="none" stroke="none" />
      <g clip-path="url(#mask_1)">
        <path d="M13.9336 0C6.2505 0 0 6.25062 0 13.9336C0 21.6166 6.2505 27.8671 13.9336 27.8671C17.5521 27.8671 20.9811 26.4863 23.589 23.979C23.8146 23.7621 23.8221 23.403 23.6047 23.1774C23.3878 22.9517 23.0288 22.9443 22.8031 23.1612C20.4074 25.4645 17.2577 26.7328 13.9336 26.7328C6.87583 26.7328 1.13441 20.9913 1.13441 13.9336C1.13441 6.87595 6.87583 1.13441 13.9336 1.13441C20.9908 1.13441 26.7327 6.87595 26.7327 13.9336C26.7327 15.5253 26.4443 17.0782 25.8753 18.549C25.7626 18.8412 25.9076 19.1697 26.1997 19.2828C26.4918 19.3954 26.8205 19.2505 26.9335 18.9584C27.5528 17.3566 27.8671 15.6656 27.8671 13.9336C27.8671 6.25062 21.6166 0 13.9336 0Z" transform="matrix(-4.164956E-08 -1 1 -4.164956E-08 -0.007446289 27.867)" id="Fill-1" fill="#00DD8C" stroke="none" />
      </g>
    </g>
    <path d="M0.963682 0.161624C0.7398 -0.0571777 0.380762 -0.0533972 0.162079 0.170367C-0.0571956 0.394248 -0.0535332 0.753286 0.170349 0.972443L4.63487 5.34233C4.74522 5.45032 4.88817 5.50395 5.03172 5.50395C5.17857 5.50395 5.32578 5.44713 5.43695 5.33359C5.65575 5.10983 5.65197 4.75079 5.42821 4.53151L0.963682 0.161624Z" transform="matrix(0.7071068 0.7071068 -0.7071068 0.7071068 13.9928 13.80039)" id="Fill-4" fill="#00DD8C" stroke="none" />
    <path d="M4.44151 5.24347C4.55222 5.35429 4.69765 5.40958 4.84249 5.40958C4.98793 5.40958 5.13277 5.35429 5.24359 5.24347C5.46511 5.02195 5.46511 4.66292 5.24359 4.4414L0.968215 0.166139C0.746696 -0.0553797 0.387658 -0.0553797 0.166139 0.166139C-0.0553797 0.387658 -0.0553797 0.746696 0.166139 0.968215L4.44151 5.24347Z" transform="matrix(0.7071068 0.7071068 -0.7071068 0.7071068 13.9928 6.269417)" id="Fill-5" fill="#00DD8C" stroke="none" />
    <path d="M12.922 0.166139C12.7005 -0.0553797 12.3409 -0.0553797 12.1199 0.166139L0.166139 12.1198C-0.0553797 12.3413 -0.0553797 12.7003 0.166139 12.9219C0.276958 13.0322 0.422274 13.0876 0.567236 13.0876C0.712553 13.0876 0.857515 13.0322 0.968215 12.9219L12.922 0.968215C13.143 0.746696 13.143 0.387658 12.922 0.166139Z" transform="matrix(0.7071068 0.7071068 -0.7071068 0.7071068 13.92639 4.679085)" id="Fill-6" fill="#00DD8C" stroke="none" />
  </g>
</svg>
