<svg width="37" height="37" xmlns="http://www.w3.org/2000/svg">

 <g>
  <title>background</title>
  <rect fill="none" id="canvas_background" height="402" width="582" y="-1" x="-1"/>
 </g>
 <g>
  <title>Layer 1</title>
  <path stroke="null" id="svg_1" fill="#10547F" d="m25.809245,11.2928c-1.865921,-1.865657 -4.341126,-2.892277 -6.97893,-2.892277c-2.446915,0 -4.753836,0.883454 -6.564368,2.500586c-0.141183,0.126113 -0.279459,0.256721 -0.414429,0.391691c-0.277608,0.277608 -0.535387,0.568039 -0.773204,0.869574c-0.173439,0.219839 -0.336302,0.445627 -0.48859,0.67657c-2.349224,3.563692 -2.164019,8.350312 0.639952,11.725892c-0.317266,0.638498 -0.826478,1.38143 -1.581836,1.752895c-0.36327,0.179388 -0.567642,0.567642 -0.505114,0.968323c0.062528,0.400548 0.371598,0.713584 0.772279,0.776244c0.187716,0.029215 0.45488,0.05843 0.780342,0.05843c0.872482,0 2.158071,-0.204637 3.472742,-1.151808c1.464976,0.788671 3.067831,1.172563 4.65826,1.172563c2.554257,0 5.083529,-0.988945 6.986993,-2.892145c1.865789,-1.865657 2.892542,-4.340465 2.892542,-6.978401c0,-2.637539 -1.031115,-5.112611 -2.89664,-6.978136zm-0.797396,13.159274c-2.817323,2.817191 -7.179072,3.376373 -10.609908,1.360807c-0.225391,-0.133781 -0.505114,-0.092007 -0.684634,0.087513c-0.016656,0.00846 -0.033445,0.020887 -0.045871,0.033313c-1.131054,0.876448 -2.241353,1.060065 -2.976088,1.060065c0.843135,-0.617611 1.377464,-1.5357 1.6905,-2.249417c0.050102,-0.12109 0.058562,-0.24641 0.029215,-0.363138c-0.012426,-0.112762 -0.058298,-0.225391 -0.137879,-0.317398c-3.055141,-3.451459 -2.896508,-8.710013 0.3675,-11.973888c3.410082,-3.409818 8.957216,-3.409818 12.362936,0c3.414312,3.409686 3.414312,8.952325 0.00423,12.362143z" clip-rule="evenodd" fill-rule="evenodd"/>
  <path stroke="null" id="svg_2" fill="#10547F" d="m27.731711,2.762334c8.727419,5.039232 11.728147,16.239725 6.689528,24.967881c-5.038755,8.728156 -16.237992,11.729321 -24.965411,6.690062c-0.355366,-0.20518 -0.477349,-0.660864 -0.272189,-1.016265c0.205567,-0.35608 0.660798,-0.477532 1.016164,-0.272352c8.016959,4.629034 18.304241,1.872267 22.932812,-6.145494c4.628571,-8.017761 1.872216,-18.305937 -6.144879,-22.935107c-8.016416,-4.628722 -18.304105,-1.872186 -22.932704,6.145494c-2.880984,4.990542 -3.013687,11.027068 -0.354158,16.148833c0.189406,0.364357 0.046853,0.813392 -0.317549,1.002831c-0.364457,0.189439 -0.813433,0.046817 -1.002825,-0.31754c-2.894526,-5.574057 -2.750195,-12.145651 0.385936,-17.578172c5.038619,-8.728088 16.237992,-11.729348 24.965275,-6.690171z" clip-rule="evenodd" fill-rule="evenodd"/>
 </g>
</svg>