<svg width="20" height="20" viewBox="0 0 20 17" fill="none" xmlns="http://www.w3.org/2000/svg">
<path d="M19.8158 12.3876C19.6569 12.2524 19.3991 12.2524 19.2403 12.3876L15.2034 15.8189V0.345948C15.2034 0.154927 15.0211 0 14.7964 0C14.5717 0 14.3894 0.154927 14.3894 0.345948V15.8188L10.3525 12.3875C10.1936 12.2524 9.93584 12.2524 9.77691 12.3875C9.61797 12.5226 9.61797 12.7417 9.77697 12.8768L14.5087 16.8986C14.5881 16.9662 14.6923 16.9999 14.7964 16.9999C14.9005 16.9999 15.0047 16.9662 15.0842 16.8986L19.8158 12.8767C19.9748 12.7417 19.9748 12.5226 19.8158 12.3876Z" fill="#10547F"/>
<path d="M0.471939 0.691896H12.6912C12.9159 0.691896 13.0982 0.536969 13.0982 0.345948C13.0982 0.154927 12.9159 0 12.6912 0H0.471939C0.247208 0 0.0649414 0.154927 0.0649414 0.345948C0.0649414 0.536969 0.247208 0.691896 0.471939 0.691896Z" fill="#10547F"/>
<path d="M0.471939 4.74072H12.6912C12.9159 4.74072 13.0982 4.5858 13.0982 4.39478C13.0982 4.20376 12.9159 4.04883 12.6912 4.04883H0.471939C0.247208 4.04883 0.0649414 4.20376 0.0649414 4.39478C0.0649414 4.5858 0.247208 4.74072 0.471939 4.74072Z" fill="#10547F"/>
<path d="M0.471939 8.79053H12.6912C12.9159 8.79053 13.0982 8.6356 13.0982 8.44458C13.0982 8.25356 12.9159 8.09863 12.6912 8.09863H0.471939C0.247208 8.09863 0.0649414 8.25356 0.0649414 8.44458C0.0649414 8.6356 0.247208 8.79053 0.471939 8.79053Z" fill="#10547F"/>
<path d="M8.44109 12.1475H0.471939C0.247209 12.1475 0.0649414 12.3024 0.0649414 12.4934C0.0649414 12.6844 0.247209 12.8394 0.471939 12.8394H8.44109C8.66582 12.8394 8.84809 12.6844 8.84809 12.4934C8.84809 12.3024 8.66589 12.1475 8.44109 12.1475Z" fill="#10547F"/>
<path d="M8.44109 16.1973H0.471939C0.247209 16.1973 0.0649414 16.3522 0.0649414 16.5432C0.0649414 16.7342 0.247209 16.8892 0.471939 16.8892H8.44109C8.66582 16.8892 8.84809 16.7342 8.84809 16.5432C8.84809 16.3522 8.66589 16.1973 8.44109 16.1973Z" fill="#10547F"/>
</svg>
