<?xml version="1.0" encoding="utf-8"?>
<svg width="23px" height="23px" viewBox="0 0 23 20" version="1.1" xmlns:xlink="http://www.w3.org/1999/xlink" xmlns="http://www.w3.org/2000/svg">
  <g id="briefcase">
    <path d="M22.4524 0C22.1238 0 21.9048 0.21174 21.9048 0.529396L21.9048 7.41177C21.9048 7.72942 21.6857 7.94116 21.3571 7.94116L1.6429 7.94116C1.31432 7.94116 1.09525 7.72942 1.09525 7.41177L1.09525 0.529396C1.09525 0.21174 0.876228 0 0.547648 0C0.219069 0 0 0.21174 0 0.529396L0 7.41177C0 8.31178 0.711938 9 1.6429 9L21.3571 9C22.2881 9 23 8.31178 23 7.41177L23 0.529396C23 0.21174 22.7809 0 22.4524 0" transform="translate(0 11)" id="Fill-1" fill="#10547F" stroke="none" />
    <path d="M21.9545 5.16997C21.9545 5.44501 21.7977 5.66498 21.5364 5.72L13.5909 7.58997L13.5909 7.14997C13.5909 6.81996 13.3818 6.59999 13.0682 6.59999L9.93182 6.59999C9.61818 6.59999 9.40911 6.81996 9.40911 7.14997L9.40911 7.58997L1.46364 5.72C1.20229 5.66498 1.04547 5.44501 1.04547 5.16997L1.04547 1.65C1.04547 1.31999 1.25453 1.09997 1.56818 1.09997L21.4318 1.09997C21.7455 1.09997 21.9545 1.31999 21.9545 1.65L21.9545 5.16997ZM10.4545 9.89999L12.5455 9.89999L12.5455 7.7L10.4545 7.7L10.4545 9.89999ZM21.4318 0L1.56818 0C0.679533 0 0 0.714988 0 1.65L0 5.16997C0 5.93997 0.522711 6.59999 1.20229 6.76499L9.40911 8.68998L9.40911 10.45C9.40911 10.78 9.61818 11 9.93182 11L13.0682 11C13.3818 11 13.5909 10.78 13.5909 10.45L13.5909 8.68998L21.7977 6.76499C22.4773 6.59999 23 5.93997 23 5.16997L23 1.65C23 0.714988 22.3205 0 21.4318 0L21.4318 0Z" transform="translate(0 3)" id="Fill-3" fill="#10547F" stroke="none" />
    <path d="M0.52271 3C0.836355 3 1.04547 2.75998 1.04547 2.40002L1.04547 1.79999C1.04547 1.43998 1.25453 1.20001 1.56818 1.20001L6.79546 1.20001C7.1091 1.20001 7.31817 1.43998 7.31817 1.79999L7.31817 2.40002C7.31817 2.75998 7.52728 3 7.84093 3C8.15452 3 8.36364 2.75998 8.36364 2.40002L8.36364 1.79999C8.36364 0.779984 7.6841 0 6.79546 0L1.56818 0C0.679533 0 0 0.779984 0 1.79999L0 2.40002C0 2.75998 0.209111 3 0.52271 3" transform="translate(7.318182 0)" id="Fill-5" fill="#10547F" stroke="none" />
  </g>
</svg>
