<?xml version="1.0" encoding="utf-8"?>
<svg width="15px" height="15px" viewBox="0 0 15 15" version="1.1" xmlns:xlink="http://www.w3.org/1999/xlink" xmlns="http://www.w3.org/2000/svg">
  <defs>
    <path d="M14.999 5.93333L9.34899 5.93333L11.6323 3.58333C9.35732 1.33333 5.67399 1.25 3.39899 3.5C1.12399 5.75833 1.12399 9.4 3.39899 11.6583C5.67399 13.9167 9.35732 13.9167 11.6323 11.6583C12.7657 10.5417 13.3323 9.23333 13.3323 7.58333L14.999 7.58333C14.999 9.23333 14.2657 11.375 12.799 12.825C9.87399 15.725 5.12399 15.725 2.19899 12.825C-0.71768 9.93333 -0.74268 5.23333 2.18232 2.34167C5.10732 -0.55 9.79899 -0.55 12.724 2.34167L14.999 0L14.999 5.93333ZM7.91565 4.16667L7.91565 7.70833L10.8323 9.44167L10.2323 10.45L6.66565 8.33333L6.66565 4.16667L7.91565 4.16667Z" id="path_1" />
    <clipPath id="mask_1">
      <use xlink:href="#path_1" />
    </clipPath>
  </defs>
  <path d="M14.999 5.93333L9.34899 5.93333L11.6323 3.58333C9.35732 1.33333 5.67399 1.25 3.39899 3.5C1.12399 5.75833 1.12399 9.4 3.39899 11.6583C5.67399 13.9167 9.35732 13.9167 11.6323 11.6583C12.7657 10.5417 13.3323 9.23333 13.3323 7.58333L14.999 7.58333C14.999 9.23333 14.2657 11.375 12.799 12.825C9.87399 15.725 5.12399 15.725 2.19899 12.825C-0.71768 9.93333 -0.74268 5.23333 2.18232 2.34167C5.10732 -0.55 9.79899 -0.55 12.724 2.34167L14.999 0L14.999 5.93333ZM7.91565 4.16667L7.91565 7.70833L10.8323 9.44167L10.2323 10.45L6.66565 8.33333L6.66565 4.16667L7.91565 4.16667Z" id="Shape" fill="#00DD8C" stroke="none" />
</svg>
