<?xml version="1.0" encoding="utf-8"?>
<svg width="25px" height="25px" viewBox="0 0 25 25" version="1.1" xmlns:xlink="http://www.w3.org/1999/xlink" xmlns="http://www.w3.org/2000/svg">
  <path d="M22.4904 10.0279C22.4547 9.71078 22.0849 9.47247 21.7652 9.47247C20.7314 9.47247 19.814 8.86548 19.4293 7.92674C19.0363 6.96525 19.2897 5.84394 20.0602 5.13722C20.3027 4.91553 20.3321 4.54442 20.1287 4.28663C19.5996 3.61475 18.9983 3.00784 18.3416 2.48185C18.0845 2.27552 17.7073 2.30422 17.4843 2.5511C16.8119 3.29576 15.6041 3.57252 14.6708 3.18311C13.6995 2.77456 13.0871 1.79041 13.147 0.733983C13.1667 0.402155 12.9242 0.113643 12.5934 0.0751127C11.7508 -0.0223454 10.9007 -0.0253673 10.0556 0.0683972C9.72852 0.104493 9.486 0.386206 9.497 0.713836C9.53376 1.75985 8.91391 2.72679 7.95232 3.12066C7.03018 3.49731 5.83086 3.2229 5.1598 2.48487C4.93801 2.24177 4.56689 2.21189 4.30851 2.41327C3.63241 2.9437 3.01751 3.55112 2.48354 4.21746C2.27527 4.47651 2.30591 4.85198 2.55086 5.07485C3.336 5.78585 3.58952 6.9169 3.18163 7.88947C2.7922 8.8167 1.82935 9.4143 0.727067 9.4143C0.369377 9.4028 0.114603 9.64287 0.0754844 9.96807C-0.0237389 10.8156 -0.0249142 11.6791 0.0706156 12.5335C0.10604 12.8519 0.487068 13.0882 0.810341 13.0882C1.79267 13.0631 2.73579 13.6712 3.13143 14.634C3.5258 15.5955 3.27229 16.7161 2.50066 17.4234C2.25932 17.6451 2.22868 18.0156 2.43208 18.2734C2.95623 18.941 3.5577 19.5485 4.21667 20.0789C4.47514 20.2871 4.85121 20.2577 5.07526 20.0109C5.75018 19.2644 6.9579 18.9881 7.88751 19.3783C8.8612 19.7856 9.47366 20.7696 9.41372 21.8266C9.39416 22.1586 9.63786 22.4477 9.96734 22.4856C10.3984 22.5359 10.8321 22.561 11.2669 22.561C11.6797 22.561 12.0925 22.5383 12.5053 22.4924C12.8324 22.4563 13.0747 22.1746 13.0637 21.8464C13.0259 20.8009 13.6468 19.834 14.6072 19.4408C15.5355 19.0616 16.7298 19.3392 17.4009 20.0764C17.624 20.319 17.9925 20.3483 18.2523 20.1476C18.9272 19.6184 19.5408 19.0115 20.0773 18.3433C20.2855 18.0849 20.2561 17.7088 20.0099 17.486C19.2247 16.775 18.97 15.6438 19.3779 14.6719C19.7613 13.757 20.6884 13.1427 21.6856 13.1427L21.8251 13.1463C22.1486 13.1726 22.4461 12.9235 22.4853 12.5933C22.5847 11.7451 22.5859 10.8823 22.4904 10.0279ZM11.2984 15.067C9.22342 15.067 7.53562 13.3793 7.53562 11.3044C7.53562 9.22954 9.22342 7.54169 11.2984 7.54169C13.3733 7.54169 15.0611 9.22954 15.0611 11.3044C15.0611 13.3793 13.3733 15.067 11.2984 15.067Z" transform="translate(0.9000244 0.8999939)" id="Shape" fill="none" stroke="#10547F" stroke-width="1.8" />
</svg>
