<svg width="32" height="33" viewBox="0 0 32 33" fill="none" xmlns="http://www.w3.org/2000/svg">
<g clip-path="url(#clip0)">
<path d="M31.2413 21.7249H27.9701V15.7639C27.9701 9.46979 23.0406 4.30609 16.8398 3.92877V1.50087C16.8398 1.08195 16.5 0.742188 16.0811 0.742188C15.6622 0.742188 15.3224 1.08195 15.3224 1.50087V3.91979C9.04549 4.21593 4.02998 9.41517 4.02998 15.7641V19.6403C4.02998 20.0592 4.36975 20.399 4.78866 20.399C5.20758 20.399 5.54734 20.0592 5.54734 19.6403V15.7639C5.54734 10.0621 10.1862 5.42324 15.8879 5.42324H16.1121C21.814 5.42324 26.4528 10.0622 26.4528 15.7639V21.7249H0.75868C0.339762 21.7249 0 22.0646 0 22.4836V26.8824C0 27.3013 0.339762 27.6411 0.75868 27.6411H31.2413C31.6602 27.6411 32 27.3013 32 26.8824V22.4836C32 22.0645 31.6604 21.7249 31.2413 21.7249ZM30.4826 26.1237H1.51736V23.2422H30.4826V26.1237Z" fill="white"/>
<path d="M18.7361 28.2422C18.3172 28.2422 17.9775 28.582 17.9775 29.0009C17.9775 30.076 17.1028 30.9507 16.0277 30.9507H15.9729C14.8979 30.9507 14.0232 30.076 14.0232 29.0009C14.0232 28.582 13.6835 28.2422 13.2645 28.2422C12.8456 28.2422 12.5059 28.582 12.5059 29.0009C12.5059 30.9126 14.0612 32.468 15.9729 32.468H16.0277C17.9395 32.468 19.4948 30.9126 19.4948 29.0009C19.4948 28.5818 19.1551 28.2422 18.7361 28.2422Z" fill="white"/>
</g>
<defs>
<clipPath id="clip0">
<rect y="0.605469" width="32" height="32" fill="white"/>
</clipPath>
</defs>
</svg>
