<?xml version="1.0" encoding="utf-8"?>
<svg width="29px" height="29px" viewBox="0 0 29 29" version="1.1" xmlns:xlink="http://www.w3.org/1999/xlink" xmlns="http://www.w3.org/2000/svg">
  <defs>
    <rect width="29" height="29" id="artboard_1" />
    <clipPath id="clip_1">
      <use xlink:href="#artboard_1" clip-rule="evenodd" />
    </clipPath>
  </defs>
  <g id="icon/search-desk" clip-path="url(#clip_1)">
    <use xlink:href="#artboard_1" stroke="none" fill="transparent" />
    <path d="M16.8493 16.1329L12.718 12.0017C13.8262 10.7277 14.4971 9.06529 14.4971 7.24854C14.4971 3.24926 11.2441 0 7.24854 0C3.24926 0 0 3.25294 0 7.24854C0 11.2441 3.25294 14.4971 7.24854 14.4971C9.06529 14.4971 10.7277 13.8262 12.0017 12.718L16.1329 16.8493C16.231 16.9472 16.363 17 16.4911 17C16.6192 17 16.7512 16.951 16.8493 16.8493C17.0453 16.6532 17.0453 16.329 16.8493 16.1329ZM1.01397 7.24854C1.01397 3.81081 3.81081 1.01783 7.24486 1.01783C10.6824 1.01783 13.4756 3.81467 13.4756 7.24854C13.4756 10.6824 10.6824 13.4831 7.24486 13.4831C3.81081 13.4831 1.01397 10.6863 1.01397 7.24854Z" transform="translate(6 6)" id="magnifying-glass" fill="#10547F" stroke="none" />
    <path d="M14.5001 0C6.50461 0 0 6.50473 0 14.5001C0 22.4954 6.50461 29 14.5001 29C18.2657 29 21.8341 27.5631 24.548 24.9538C24.7828 24.7281 24.7906 24.3545 24.5643 24.1196C24.3386 23.8848 23.965 23.8771 23.7301 24.1028C21.237 26.4998 17.9593 27.8196 14.5001 27.8196C7.15536 27.8196 1.18053 21.8446 1.18053 14.5001C1.18053 7.15549 7.15536 1.18053 14.5001 1.18053C21.8441 1.18053 27.8195 7.15549 27.8195 14.5001C27.8195 16.1565 27.5194 17.7725 26.9272 19.3031C26.81 19.6071 26.9608 19.9491 27.2649 20.0667C27.5688 20.1839 27.9108 20.0331 28.0285 19.7291C28.673 18.0622 29 16.3025 29 14.5001C29 6.50473 22.4954 0 14.5001 0Z" transform="matrix(0.9781476 0.2079117 -0.2079117 0.9781476 3.331579 -2.69786)" id="Fill-1" fill="#10547F" stroke="none" />
  </g>
</svg>
