<svg width="56" height="56" viewBox="0 0 56 56" fill="none" xmlns="http://www.w3.org/2000/svg">
<g filter="url(#filter0_d)">
<rect x="6" y="4" width="38" height="38" rx="19" fill="#00DD8C"/>
</g>
<mask id="mask0" mask-type="alpha" maskUnits="userSpaceOnUse" x="5" y="3" width="40" height="40">
<path fill-rule="evenodd" clip-rule="evenodd" d="M21.5703 3.51611L5.59047 26.3377L28.4179 42.3216L44.3977 19.5L21.5703 3.51611Z" fill="white"/>
</mask>
<g mask="url(#mask0)">
<path fill-rule="evenodd" clip-rule="evenodd" d="M13.5822 14.924C17.9891 8.63036 26.6944 7.09546 32.988 11.5022C39.2815 15.909 40.8165 24.6143 36.4096 30.9079C34.3341 33.872 31.2363 35.8889 27.6866 36.587C27.3794 36.6474 27.0811 36.4476 27.0209 36.1401C26.9605 35.833 27.1603 35.5346 27.4674 35.4742C30.7283 34.8329 33.5738 32.9802 35.4805 30.2573C39.5286 24.4759 38.1186 16.4796 32.3373 12.4315C26.556 8.38339 18.5597 9.79328 14.5115 15.5747C10.4637 21.3556 11.8734 29.3523 17.6547 33.4004C18.9586 34.3134 20.3961 34.9678 21.9272 35.3453C22.2312 35.4206 22.4172 35.7278 22.3422 36.032C22.2669 36.3358 21.9598 36.5219 21.6556 36.447C19.9882 36.0355 18.4228 35.323 17.0041 34.3296C10.7105 29.9228 9.17545 21.2175 13.5822 14.924Z" fill="white"/>
</g>
<path fill-rule="evenodd" clip-rule="evenodd" d="M27.7643 20.4799H28.2848C28.4757 20.4799 28.6321 20.3238 28.6321 20.1329C28.6321 19.9418 28.4757 19.7856 28.2848 19.7856H27.7643C27.5731 19.7856 27.417 19.9418 27.417 20.1329C27.417 20.3238 27.5731 20.4799 27.7643 20.4799Z" fill="white" stroke="white" stroke-width="0.3"/>
<path fill-rule="evenodd" clip-rule="evenodd" d="M32.9018 17.3906C32.7801 17.1476 32.5373 17.0088 32.277 17.0088H17.6979C17.4375 17.0088 17.1945 17.1649 17.0732 17.3906C16.9515 17.6336 16.9863 17.9114 17.1426 18.1196L23.2691 25.8255V30.8414C23.2691 31.1018 23.4081 31.3274 23.6338 31.4488C23.7378 31.5009 23.842 31.5357 23.9634 31.5357C24.1021 31.5357 24.2412 31.5009 24.3625 31.4143L26.289 30.0779C26.5668 29.8696 26.7229 29.5571 26.7229 29.2274V25.8081L32.8322 18.1196C32.9884 17.9114 33.0231 17.6336 32.9018 17.3906ZM26.0981 25.4785C26.0634 25.5306 26.0289 25.5999 26.0289 25.6868V29.2101C26.0289 29.3314 25.9767 29.4357 25.8899 29.505L23.9634 30.8414V25.6868C23.9634 25.5654 23.9113 25.4611 23.8246 25.409L19.9022 20.48H26.2024C26.3933 20.48 26.5494 20.3238 26.5494 20.133C26.5494 19.9418 26.3933 19.7857 26.2024 19.7857H19.364L17.6979 17.7031H32.277L26.0981 25.4785Z" fill="white"/>
<path d="M32.9018 17.3906L33.036 17.3235L33.0359 17.3234L32.9018 17.3906ZM17.0732 17.3906L16.941 17.3195L16.939 17.3234L17.0732 17.3906ZM17.1426 18.1196L17.0226 18.2097L17.0252 18.2129L17.1426 18.1196ZM23.2691 25.8255H23.4191V25.7732L23.3865 25.7322L23.2691 25.8255ZM23.6338 31.4488L23.5627 31.581L23.5666 31.5829L23.6338 31.4488ZM24.3625 31.4143L24.277 31.2911L24.2754 31.2922L24.3625 31.4143ZM26.289 30.0779L26.3746 30.2012L26.379 30.1979L26.289 30.0779ZM26.7229 25.8081L26.6055 25.7148L26.5729 25.7558V25.8081H26.7229ZM32.8322 18.1196L32.9497 18.2129L32.9522 18.2096L32.8322 18.1196ZM26.0981 25.4785L25.9803 25.3848L25.9733 25.3952L26.0981 25.4785ZM25.8899 29.505L25.9756 29.6285L25.9834 29.6222L25.8899 29.505ZM23.9634 30.8414H23.8134V31.128L24.0489 30.9647L23.9634 30.8414ZM23.8246 25.409L23.7072 25.5024L23.7241 25.5236L23.7473 25.5376L23.8246 25.409ZM19.9022 20.48V20.33H19.5911L19.7848 20.5734L19.9022 20.48ZM19.364 19.7857L19.2469 19.8794L19.2919 19.9357H19.364V19.7857ZM17.6979 17.7031V17.5531H17.3858L17.5808 17.7968L17.6979 17.7031ZM32.277 17.7031L32.3944 17.7964L32.5877 17.5531H32.277V17.7031ZM33.0359 17.3234C32.8875 17.027 32.5911 16.8588 32.277 16.8588V17.1588C32.4836 17.1588 32.6727 17.2682 32.7676 17.4577L33.0359 17.3234ZM32.277 16.8588H17.6979V17.1588H32.277V16.8588ZM17.6979 16.8588C17.3786 16.8588 17.0868 17.0487 16.9411 17.3195L17.2053 17.4616C17.3023 17.2812 17.4965 17.1588 17.6979 17.1588V16.8588ZM16.939 17.3234C16.7905 17.6201 16.834 17.9585 17.0227 18.2096L17.2626 18.0295C17.1385 17.8643 17.1125 17.6471 17.2073 17.4577L16.939 17.3234ZM17.0252 18.2129L23.1517 25.9189L23.3865 25.7322L17.26 18.0262L17.0252 18.2129ZM23.1191 25.8255V30.8414H23.4191V25.8255H23.1191ZM23.1191 30.8414C23.1191 31.1582 23.2894 31.4339 23.5627 31.5809L23.7048 31.3167C23.5267 31.2209 23.4191 31.0454 23.4191 30.8414H23.1191ZM23.5666 31.5829C23.6832 31.6414 23.8109 31.6857 23.9634 31.6857V31.3857C23.873 31.3857 23.7923 31.3605 23.7009 31.3147L23.5666 31.5829ZM23.9634 31.6857C24.1274 31.6857 24.2984 31.6444 24.4497 31.5364L24.2754 31.2922C24.184 31.3575 24.0769 31.3857 23.9634 31.3857V31.6857ZM24.448 31.5376L26.3745 30.2011L26.2035 29.9546L24.277 31.2911L24.448 31.5376ZM26.379 30.1979C26.6935 29.9621 26.8729 29.6056 26.8729 29.2274H26.5729C26.5729 29.5086 26.4401 29.7771 26.1991 29.9579L26.379 30.1979ZM26.8729 29.2274V25.8081H26.5729V29.2274H26.8729ZM26.8404 25.9015L32.9497 18.2129L32.7148 18.0263L26.6055 25.7148L26.8404 25.9015ZM32.9522 18.2096C33.1406 17.9584 33.1841 17.6201 33.036 17.3235L32.7676 17.4576C32.8622 17.6471 32.8362 17.8643 32.7122 18.0296L32.9522 18.2096ZM25.9733 25.3952C25.9303 25.4598 25.8789 25.5583 25.8789 25.6868H26.1789C26.1789 25.6414 26.1964 25.6014 26.2229 25.5617L25.9733 25.3952ZM25.8789 25.6868V29.2101H26.1789V25.6868H25.8789ZM25.8789 29.2101C25.8789 29.2863 25.8471 29.3472 25.7964 29.3877L25.9834 29.6222C26.1064 29.5242 26.1789 29.3766 26.1789 29.2101H25.8789ZM25.8044 29.3817L23.8779 30.7182L24.0489 30.9647L25.9754 29.6282L25.8044 29.3817ZM24.1134 30.8414V25.6868H23.8134V30.8414H24.1134ZM24.1134 25.6868C24.1134 25.525 24.0433 25.3655 23.9019 25.2805L23.7473 25.5376C23.7793 25.5568 23.8134 25.6057 23.8134 25.6868H24.1134ZM23.942 25.3156L20.0195 20.3866L19.7848 20.5734L23.7072 25.5024L23.942 25.3156ZM19.9022 20.63H26.2024V20.33H19.9022V20.63ZM26.2024 20.63C26.4761 20.63 26.6994 20.4067 26.6994 20.133H26.3994C26.3994 20.241 26.3104 20.33 26.2024 20.33V20.63ZM26.6994 20.133C26.6994 19.8591 26.4762 19.6357 26.2024 19.6357V19.9357C26.3104 19.9357 26.3994 20.0246 26.3994 20.133H26.6994ZM26.2024 19.6357H19.364V19.9357H26.2024V19.6357ZM19.4812 19.692L17.815 17.6094L17.5808 17.7968L19.2469 19.8794L19.4812 19.692ZM17.6979 17.8531H32.277V17.5531H17.6979V17.8531ZM32.1595 17.6098L25.9807 25.3852L26.2156 25.5718L32.3944 17.7964L32.1595 17.6098Z" fill="white"/>
<defs>
<filter id="filter0_d" x="0" y="0" width="56" height="56" filterUnits="userSpaceOnUse" color-interpolation-filters="sRGB">
<feFlood flood-opacity="0" result="BackgroundImageFix"/>
<feColorMatrix in="SourceAlpha" type="matrix" values="0 0 0 0 0 0 0 0 0 0 0 0 0 0 0 0 0 0 127 0"/>
<feOffset dx="3" dy="5"/>
<feGaussianBlur stdDeviation="4.5"/>
<feColorMatrix type="matrix" values="0 0 0 0 0 0 0 0 0 0 0 0 0 0 0 0 0 0 0.0832201 0"/>
<feBlend mode="normal" in2="BackgroundImageFix" result="effect1_dropShadow"/>
<feBlend mode="normal" in="SourceGraphic" in2="effect1_dropShadow" result="shape"/>
</filter>
</defs>
</svg>
