<svg width="14" height="13" viewBox="-1 0 14 11" fill="none" xmlns="http://www.w3.org/2000/svg">
<path fill-rule="evenodd" clip-rule="evenodd" d="M1.33333 10.6667H10.6666V3.33337H1.33333V10.6667ZM10.6667 9.07183e-05H10V-1.33325H8.66666V9.07183e-05H3.33334V-1.33325H2V9.07183e-05H1.33334C0.596656 9.07183e-05 0.00665625 0.596746 0.00665625 1.3334L0 10.6667C0 11.4034 0.596656 12.0001 1.33334 12.0001H10.6667C11.4033 12.0001 12 11.4034 12 10.6667V1.3334C12 0.596746 11.4033 9.07183e-05 10.6667 9.07183e-05ZM9.0201 5.37336L8.31345 4.66671L5.0601 7.92005L3.64676 6.50671L2.9401 7.21336L5.0601 9.33336L9.0201 5.37336Z" fill="#00DD8C"/>
</svg>
