<?xml version="1.0" encoding="utf-8"?>
<svg width="44px" height="44px" viewBox="0 0 44 32" version="1.1" xmlns:xlink="http://www.w3.org/1999/xlink" xmlns="http://www.w3.org/2000/svg">
  <g id="Group-3">
    <path d="M1 0L40.6722 0Q40.7749 0 40.8736 0.0186045Q40.9724 0.037209 41.0639 0.0738122Q41.1554 0.110415 41.2367 0.163826Q41.318 0.217236 41.3865 0.285714Q41.455 0.354193 41.5084 0.43551Q41.5618 0.516827 41.5984 0.608335Q41.635 0.699843 41.6536 0.798563Q41.6722 0.897283 41.6722 1L41.6722 1.49842Q41.6722 1.60113 41.6536 1.69985Q41.635 1.79857 41.5984 1.89008Q41.5618 1.98159 41.5084 2.06291Q41.455 2.14422 41.3865 2.2127Q41.318 2.28118 41.2367 2.33459Q41.1554 2.388 41.0639 2.42461Q40.9724 2.46121 40.8737 2.47981Q40.7749 2.49842 40.6722 2.49842L1 2.49842Q0.897283 2.49842 0.798563 2.47981Q0.699843 2.46121 0.608335 2.42461Q0.516827 2.388 0.43551 2.33459Q0.354193 2.28118 0.285714 2.2127Q0.217236 2.14422 0.163826 2.06291Q0.110415 1.98159 0.0738122 1.89008Q0.037209 1.79857 0.0186045 1.69985Q0 1.60113 0 1.49842L0 1Q0 0.897283 0.0186045 0.798563Q0.037209 0.699843 0.0738122 0.608335Q0.110415 0.516827 0.163826 0.43551Q0.217236 0.354193 0.285714 0.285714Q0.354193 0.217236 0.43551 0.163826Q0.516827 0.110415 0.608335 0.0738122Q0.699843 0.037209 0.798563 0.0186045Q0.897283 0 1 0Z" transform="matrix(-0.7071068 0.7071067 -0.7071067 -0.7071068 43.23336 1.766648)" id="Rectangle-2" fill="#00DD8C" stroke="none" />
    <path d="M1 0L17.7189 0Q17.8216 0 17.9203 0.0186045Q18.0191 0.037209 18.1106 0.0738122Q18.2021 0.110415 18.2834 0.163826Q18.3647 0.217236 18.4332 0.285714Q18.5017 0.354193 18.5551 0.43551Q18.6085 0.516827 18.6451 0.608335Q18.6817 0.699843 18.7003 0.798563Q18.7189 0.897283 18.7189 1L18.7189 1.49842Q18.7189 1.60113 18.7003 1.69985Q18.6817 1.79857 18.6451 1.89008Q18.6085 1.98159 18.5551 2.06291Q18.5017 2.14422 18.4332 2.2127Q18.3647 2.28118 18.2834 2.33459Q18.2021 2.388 18.1106 2.42461Q18.019 2.46121 17.9203 2.47981Q17.8216 2.49842 17.7189 2.49842L1 2.49842Q0.897283 2.49842 0.798563 2.47981Q0.699843 2.46121 0.608335 2.42461Q0.516827 2.388 0.43551 2.33459Q0.354193 2.28118 0.285714 2.2127Q0.217236 2.14422 0.163826 2.06291Q0.110415 1.98159 0.0738122 1.89008Q0.037209 1.79857 0.0186045 1.69985Q0 1.60113 0 1.49842L0 1Q0 0.897283 0.0186045 0.798563Q0.037209 0.699843 0.0738122 0.608335Q0.110415 0.516827 0.163826 0.43551Q0.217236 0.354193 0.285714 0.285714Q0.354193 0.217236 0.43551 0.163826Q0.516827 0.110415 0.608335 0.0738122Q0.699843 0.037209 0.798563 0.0186045Q0.897283 0 1 0Z" transform="matrix(0.7071066 0.7071069 -0.7071069 0.7071066 1.766649 16)" id="Rectangle-2" fill="#00DD8C" stroke="none" />
  </g>
</svg>
