<?xml version="1.0" encoding="utf-8"?>
<svg width="28px" height="28px" viewBox="0 0 28 28" version="1.1" xmlns:xlink="http://www.w3.org/1999/xlink" xmlns="http://www.w3.org/2000/svg">
  <defs>
    <path d="M0 0L27.86 0L27.86 27.8671L0 27.8671L0 0Z" transform="translate(0.007088607 0.01488607)" id="path_1" />
    <clipPath id="mask_1">
      <use xlink:href="#path_1" />
    </clipPath>
  </defs>
  <path d="M0.880585 10.3002C0.813367 10.367 0.765338 10.4511 0.741934 10.5425L0.0170661 13.3336C-0.0301862 13.5165 0.0221685 13.7106 0.155717 13.844C0.257099 13.945 0.392644 14 0.532183 14C0.576773 14 0.621918 13.9943 0.666064 13.9831L3.45728 13.2582C3.54912 13.2344 3.63275 13.1863 3.69997 13.1192L12.1434 4.67587C12.1438 4.67587 13.844 2.97527 13.844 2.97527C14.052 2.7673 14.052 2.43022 13.844 2.22225L11.7781 0.155951C11.678 0.0559028 11.5429 0 11.4015 0C11.2603 0 11.1247 0.0559028 11.0251 0.155951L9.32532 1.85577C9.32488 1.85577 0.880585 10.3002 0.880585 10.3002ZM2.82176 12.5271L1 13L1.47298 11.1787L9.65156 3L11 4.3489L2.82176 12.5271ZM11.0776 1.43874L12.2394 2.60072L11.4015 3.43874L10.2394 2.27675L11.0776 1.43874Z" transform="translate(7.000732 7)" id="Fill-1" fill="#10547F" stroke="none" />
  <g id="close" transform="matrix(8.42937E-08 -0.9999999 0.9999999 8.42937E-08 0 27.99999)">
    <g id="Group-3" transform="translate(3.814697E-06 -0.0002441406)">
      <path d="M0 0L27.86 0L27.86 27.8671L0 27.8671L0 0Z" transform="translate(0.007088607 0.01488607)" id="Clip-2" fill="none" stroke="none" />
      <g clip-path="url(#mask_1)">
        <path d="M13.9336 0C6.2505 0 0 6.25061 0 13.9336C0 21.6166 6.2505 27.8671 13.9336 27.8671C17.5521 27.8671 20.9811 26.4863 23.589 23.979C23.8146 23.762 23.8221 23.403 23.6047 23.1774C23.3878 22.9517 23.0288 22.9443 22.8031 23.1612C20.4074 25.4645 17.2577 26.7328 13.9336 26.7328C6.87583 26.7328 1.13441 20.9912 1.13441 13.9336C1.13441 6.87594 6.87583 1.13441 13.9336 1.13441C20.9908 1.13441 26.7327 6.87594 26.7327 13.9336C26.7327 15.5253 26.4443 17.0782 25.8753 18.549C25.7626 18.8411 25.9076 19.1697 26.1997 19.2828C26.4918 19.3954 26.8205 19.2505 26.9335 18.9583C27.5528 17.3566 27.8671 15.6656 27.8671 13.9336C27.8671 6.25061 21.6166 0 13.9336 0Z" transform="translate(0 0.01488607)" id="Fill-1" fill="#10547F" stroke="none" />
      </g>
    </g>
  </g>
</svg>
