<?xml version="1.0" encoding="utf-8"?>
<svg width="17px" height="17px" viewBox="0 0 17 17" version="1.1" xmlns:xlink="http://www.w3.org/1999/xlink" xmlns="http://www.w3.org/2000/svg">
  <defs>
    <path d="M0 0L15.1543 0L15.1543 15.0863L0 15.0863L0 0Z" transform="translate(0.004378434 0.01968131)" id="path_1" />
    <clipPath id="mask_1">
      <use xlink:href="#path_1" />
    </clipPath>
  </defs>
  <g id="icon/settings">
    <g id="settings">
      <g id="Group-3" transform="translate(0 1.821429)">
        <path d="M0 0L15.1543 0L15.1543 15.0863L0 15.0863L0 0Z" transform="translate(0.004378434 0.01968131)" id="Clip-2" fill="none" stroke="none" />
        <g clip-path="url(#mask_1)">
          <path d="M14.0198 9.69032C13.883 9.55415 13.6609 9.55415 13.5244 9.69032C13.3876 9.82649 13.3876 10.0472 13.5244 10.1831L14.2054 10.8608C14.3684 11.0231 14.4582 11.239 14.4582 11.4685C14.4582 11.698 14.3684 11.9139 14.2054 12.0761L14.188 12.0934C14.0249 12.2557 13.808 12.345 13.5775 12.345C13.3468 12.345 13.1299 12.2557 12.9668 12.0932L12.2858 11.4157C12.1678 11.2982 11.9831 11.2801 11.8443 11.372C11.2086 11.793 10.5088 12.0818 9.7634 12.2307C9.59979 12.2633 9.48208 12.4063 9.48208 12.5723L9.48208 13.5298C9.48208 14.0038 9.09466 14.3891 8.61858 14.3891L8.59414 14.3891C8.11806 14.3891 7.73071 14.0038 7.73071 13.5298L7.73071 12.5723C7.73071 12.4063 7.61293 12.2633 7.44932 12.2307C6.70389 12.0818 6.00378 11.793 5.3684 11.372C5.2296 11.2801 5.04461 11.2982 4.92661 11.4157L4.24591 12.0934C4.08282 12.2557 3.86594 12.345 3.63527 12.345C3.40467 12.345 3.18779 12.2557 3.0247 12.0934L3.00733 12.0761C2.8443 11.9139 2.75447 11.698 2.75447 11.4685C2.75447 11.239 2.8443 11.0231 3.00733 10.8608L3.68832 10.1831C3.80632 10.0656 3.82456 9.88176 3.73225 9.74363C3.30922 9.11099 3.01871 8.41423 2.86933 7.67266C2.83657 7.50983 2.69288 7.39269 2.52585 7.39269L1.56412 7.39269C1.08775 7.39269 0.700695 7.00713 0.700695 6.53339L0.700695 6.50899C0.700695 6.03519 1.08775 5.6497 1.56412 5.6497L2.52585 5.6497C2.69288 5.6497 2.83657 5.53255 2.86933 5.36966C3.019 4.62787 3.30922 3.9311 3.73225 3.29876C3.82456 3.16056 3.80632 2.97645 3.68832 2.85902L3.00733 2.18157C2.8443 2.01933 2.75447 1.80342 2.75447 1.57392C2.75447 1.34443 2.8443 1.12852 3.00733 0.966272L3.0247 0.948915C3.18779 0.786671 3.40467 0.69727 3.63527 0.69727C3.86594 0.69727 4.08282 0.786671 4.24591 0.948915L4.92661 1.62665C5.06344 1.76253 5.28521 1.76282 5.42203 1.62665C5.55886 1.49048 5.55886 1.26977 5.42203 1.1336L4.74133 0.456156C4.44572 0.161953 4.0529 0 3.63527 0C3.21771 0 2.82489 0.161953 2.52957 0.456156L2.5122 0.473441C2.21658 0.767353 2.05407 1.15829 2.05407 1.57392C2.05407 1.98977 2.21658 2.38071 2.5122 2.67462L2.99448 3.1546C2.65384 3.71548 2.40274 4.31805 2.24541 4.95235L1.56412 4.95235C0.701498 4.95235 0 5.65086 0 6.50899L0 6.53339C0 7.39153 0.701498 8.08974 1.56412 8.08974L2.24541 8.08974C2.40245 8.72434 2.65355 9.32691 2.99448 9.88771L2.5122 10.3678C2.21658 10.6617 2.05407 11.0525 2.05407 11.4685C2.05407 11.8841 2.21658 12.275 2.5122 12.5689L2.52957 12.5862C2.82489 12.8801 3.21771 13.0421 3.63527 13.0421C4.05319 13.0421 4.44572 12.8801 4.74133 12.5862L5.22362 12.1062C5.7872 12.4452 6.39266 12.6952 7.03001 12.8515L7.03001 13.5298C7.03001 14.3879 7.7318 15.0863 8.59414 15.0863L8.61858 15.0863C9.48092 15.0863 10.1827 14.3879 10.1827 13.5298L10.1827 12.8515C10.8201 12.6952 11.4255 12.4452 11.9891 12.1062L12.4714 12.5862C12.767 12.8801 13.1595 13.0421 13.5775 13.0421C13.995 13.0421 14.3878 12.8801 14.6832 12.5862L14.7005 12.5689C14.9961 12.275 15.1587 11.8841 15.1587 11.4685C15.1587 11.0525 14.9961 10.6617 14.7005 10.3678L14.0198 9.69032Z" transform="translate(0 0.01968131)" id="Fill-1" fill="#10547F" stroke="none" />
        </g>
      </g>
      <path d="M8.736 7.12579L8.04521 7.12579C7.88596 6.47975 7.63143 5.86604 7.28615 5.29478L7.775 4.80593C8.39308 4.18792 8.39308 3.18211 7.775 2.56403L7.7574 2.54642C7.45805 2.24678 7.05988 2.08183 6.63664 2.08183C6.21302 2.08183 5.81485 2.24678 5.5155 2.54642L5.02665 3.03535C4.45539 2.69007 3.84168 2.43547 3.19564 2.276L3.19564 1.58543C3.19535 0.711129 2.48429 0 1.61021 0L1.58543 0C0.711351 0 0 0.711129 0 1.58543L0 2.56063C0 2.75649 0.159179 2.91538 0.355121 2.91538C0.551284 2.91538 0.710241 2.75649 0.710241 2.56063L0.710241 1.58543C0.710241 1.10264 1.10286 0.710241 1.58543 0.710241L1.61021 0.710241C2.09278 0.710241 2.48547 1.10264 2.48547 1.58543L2.48547 2.56063C2.48547 2.72964 2.60478 2.87521 2.77062 2.90879C3.52591 3.06013 4.23556 3.3543 4.8796 3.7831C5.02029 3.87674 5.20779 3.85825 5.3274 3.73857L6.01767 3.0483C6.18299 2.88305 6.40282 2.792 6.63664 2.792C6.87037 2.792 7.08999 2.88305 7.25553 3.0483L7.27283 3.06598C7.43815 3.23152 7.52943 3.45113 7.52943 3.68487C7.52943 3.91861 7.43815 4.13851 7.27283 4.30376L6.58286 4.99373C6.46325 5.11334 6.44447 5.30085 6.53833 5.44161C6.96712 6.08565 7.2613 6.7953 7.41271 7.55081C7.44622 7.71672 7.59186 7.83603 7.76088 7.83603L8.736 7.83603C9.21856 7.83603 9.61119 8.22865 9.61119 8.71122L9.61119 8.73607C9.61119 9.21856 9.21856 9.61126 8.736 9.61126L7.76088 9.61126C7.56493 9.61126 7.40576 9.77014 7.40576 9.96638C7.40576 10.1622 7.56493 10.3214 7.76088 10.3214L8.736 10.3214C9.61008 10.3214 10.3214 9.61008 10.3214 8.73607L10.3214 8.71122C10.3214 7.83721 9.61008 7.12579 8.736 7.12579Z" transform="translate(6.678572 0)" id="Fill-4" fill="#10547F" stroke="none" />
      <path d="M2.12519 3.51302C1.80308 3.51302 1.50116 3.40625 1.2519 3.20391C1.09392 3.07587 0.861776 3.10013 0.7335 3.25818C0.605454 3.41615 0.629712 3.64827 0.787773 3.77631C1.16439 4.08182 1.63934 4.25 2.12519 4.25C3.29672 4.25 4.25 3.29686 4.25 2.12504C4.25 0.953212 3.29672 0 2.12519 0C0.953281 0 0 0.953212 0 2.12504C0 2.3283 0.165201 2.49357 0.368554 2.49357C0.572138 2.49357 0.737031 2.3283 0.737031 2.12504C0.737031 1.35951 1.3596 0.737055 2.12519 0.737055C2.8904 0.737055 3.51328 1.35951 3.51328 2.12504C3.51328 2.89026 2.8904 3.51302 2.12519 3.51302Z" transform="translate(6.678572 6.678572)" id="Fill-5" fill="#10547F" stroke="none" />
    </g>
  </g>
</svg>
