<svg width="50" height="31" viewBox="0 0 50 31" fill="none" xmlns="http://www.w3.org/2000/svg">
<path d="M2 0.195312C0.89565 0.195312 0 1.0728 0 2.15531V29.0073C0 30.0898 0.8961 30.9673 2 30.9673H48C49.1044 30.9673 50 30.0898 50 29.0073V2.15531C50 1.07285 49.1039 0.195312 48 0.195312H2ZM29.8625 9.36596C31.0794 9.36596 32.0546 9.62938 32.6766 9.87433L32.2516 12.4943L31.9703 12.355C31.391 12.11 30.6468 11.8743 29.6203 11.891C28.3915 11.891 27.8235 12.4282 27.8235 12.9308C27.8163 13.497 28.4872 13.8705 29.5844 14.4298C31.3952 15.2927 32.2322 16.339 32.2203 17.7143C32.1959 20.224 30.0541 21.8457 26.7547 21.8457C25.347 21.8305 23.9909 21.5384 23.2578 21.201L23.6985 18.4937L24.1031 18.6867C25.134 19.1381 25.8015 19.3206 27.0578 19.3206C27.96 19.3206 28.9282 18.9505 28.9359 18.14C28.9418 17.6108 28.5312 17.2335 27.3094 16.6409C26.1188 16.0625 24.5404 15.0937 24.5579 13.3564C24.5765 11.0063 26.761 9.36596 29.8625 9.36596ZM4.42185 9.75031H9.48905C10.1714 9.7756 10.7223 9.9909 10.9125 10.7165L12.0047 16.2413C12.0048 16.2418 12.0045 16.2438 12.0047 16.2443L12.3328 17.8996L15.4094 9.75031H18.7375L13.7906 21.6788L10.4656 21.6818L7.81875 12.0564C9.39365 12.874 10.7345 13.8201 11.511 15.1219C11.3108 14.71 11.047 14.245 10.7094 13.7867C10.3163 13.253 9.46735 12.5639 9.1125 12.2707C7.876 11.2492 6.19675 10.4242 4.3828 9.98767L4.42185 9.75031ZM20.0609 9.76408H23.3156L21.2796 21.6742H18.025L20.0609 9.76408ZM38.4438 9.76408H40.9094L43.4907 21.6742H40.5312C40.5312 21.6742 40.2377 20.3059 40.1422 19.8887C39.6771 19.8887 36.4239 19.8841 36.0578 19.8841C35.934 20.2066 35.386 21.6741 35.386 21.6741H32.0375L36.7734 10.7533C37.1087 9.97723 37.6803 9.76408 38.4438 9.76408ZM38.686 12.9675C38.5258 13.4105 38.247 14.1259 38.2656 14.0945C38.2656 14.0945 37.2637 16.713 37.0016 17.3928L39.6343 17.3912C39.5075 16.8007 38.9 13.9843 38.9 13.9843L38.686 12.9676V12.9675Z" fill="#10547F"/>
</svg>
