<svg width="20" height="21" viewBox="0 0 20 21" fill="none" xmlns="http://www.w3.org/2000/svg">
<path d="M5.83366 8.94206C5.66884 8.94206 5.50773 8.99093 5.37068 9.0825C5.23364 9.17407 5.12683 9.30422 5.06376 9.45649C5.00069 9.60876 4.98418 9.77632 5.01634 9.93797C5.04849 10.0996 5.12786 10.2481 5.2444 10.3646C5.36095 10.4812 5.50943 10.5606 5.67108 10.5927C5.83273 10.6249 6.00029 10.6084 6.15256 10.5453C6.30483 10.4822 6.43498 10.3754 6.52655 10.2384C6.61812 10.1013 6.66699 9.94021 6.66699 9.77539C6.66699 9.55438 6.5792 9.34242 6.42291 9.18614C6.26663 9.02986 6.05467 8.94206 5.83366 8.94206ZM15.8337 5.60872H15.0003V3.10872C15.0003 2.88771 14.9125 2.67575 14.7562 2.51947C14.6 2.36319 14.388 2.27539 14.167 2.27539H5.83366C5.61265 2.27539 5.40068 2.36319 5.2444 2.51947C5.08812 2.67575 5.00033 2.88771 5.00033 3.10872V5.60872H4.16699C3.50395 5.60872 2.86807 5.87212 2.39923 6.34096C1.93038 6.8098 1.66699 7.44568 1.66699 8.10872V13.1087C1.66699 13.7718 1.93038 14.4077 2.39923 14.8765C2.86807 15.3453 3.50395 15.6087 4.16699 15.6087H5.00033V18.1087C5.00033 18.3297 5.08812 18.5417 5.2444 18.698C5.40068 18.8543 5.61265 18.9421 5.83366 18.9421H14.167C14.388 18.9421 14.6 18.8543 14.7562 18.698C14.9125 18.5417 15.0003 18.3297 15.0003 18.1087V15.6087H15.8337C16.4967 15.6087 17.1326 15.3453 17.6014 14.8765C18.0703 14.4077 18.3337 13.7718 18.3337 13.1087V8.10872C18.3337 7.44568 18.0703 6.8098 17.6014 6.34096C17.1326 5.87212 16.4967 5.60872 15.8337 5.60872ZM6.66699 3.94206H13.3337V5.60872H6.66699V3.94206ZM13.3337 17.2754H6.66699V13.9421H13.3337V17.2754ZM16.667 13.1087C16.667 13.3297 16.5792 13.5417 16.4229 13.698C16.2666 13.8543 16.0547 13.9421 15.8337 13.9421H15.0003V13.1087C15.0003 12.8877 14.9125 12.6757 14.7562 12.5195C14.6 12.3632 14.388 12.2754 14.167 12.2754H5.83366C5.61265 12.2754 5.40068 12.3632 5.2444 12.5195C5.08812 12.6757 5.00033 12.8877 5.00033 13.1087V13.9421H4.16699C3.94598 13.9421 3.73402 13.8543 3.57774 13.698C3.42146 13.5417 3.33366 13.3297 3.33366 13.1087V8.10872C3.33366 7.88771 3.42146 7.67575 3.57774 7.51947C3.73402 7.36319 3.94598 7.27539 4.16699 7.27539H15.8337C16.0547 7.27539 16.2666 7.36319 16.4229 7.51947C16.5792 7.67575 16.667 7.88771 16.667 8.10872V13.1087Z" fill="#00DD8C"/>
</svg>
