<?xml version="1.0" encoding="utf-8"?>
<svg viewBox="0 0 23 20" version="1.1" xmlns:xlink="http://www.w3.org/1999/xlink" xmlns="http://www.w3.org/2000/svg">
  <g id="chat-2">
    <path d="M19.6252 2.9303C17.4513 1.04017 14.5675 0 11.4942 0C8.42086 0 5.53706 1.04017 3.3632 2.9303C-0.838212 6.58349 -1.13005 12.4313 2.63874 16.3764C2.26903 17.0232 1.67588 17.776 0.79568 18.1524C0.372542 18.3341 0.134379 18.7274 0.207263 19.1333C0.280146 19.5392 0.640127 19.8563 1.10697 19.9197C1.32568 19.9494 1.63697 19.979 2.01616 19.979C3.0327 19.979 4.53049 19.7717 6.06226 18.812C7.7691 19.611 9.6366 20 11.4894 20C14.4654 20 17.4123 18.998 19.6299 17.0699C21.8037 15.1797 23 12.6725 23 10C23 7.32779 21.7987 4.82027 19.6252 2.9303ZM18.6962 16.2622C15.4137 19.1164 10.3319 19.6829 6.33465 17.6408C6.07205 17.5053 5.74623 17.5477 5.53706 17.7295C5.51761 17.738 5.4981 17.7506 5.48363 17.7632C4.16577 18.6512 2.87216 18.8372 2.01616 18.8372C2.99848 18.2115 3.62106 17.2813 3.98578 16.5583C4.0442 16.4357 4.05392 16.3087 4.01976 16.1904C4.00529 16.0762 3.95186 15.962 3.85922 15.8689C0.299659 12.3721 0.48439 7.04449 4.28734 3.73781C8.26038 0.283247 14.7232 0.283247 18.6912 3.73781C22.6693 7.19232 22.6693 12.8077 18.6962 16.2622Z" id="Fill-1" fill="#10547F" stroke="none" />
    <path d="M2 0.999849C2 1.5523 1.55237 2 1 2C0.447632 2 0 1.5523 0 0.999849C0 0.447699 0.447632 0 1 0C1.55237 0 2 0.447699 2 0.999849Z" transform="translate(11 9)" id="Fill-3" fill="#10547F" stroke="none" />
    <path d="M2 0.999849C2 1.5523 1.55201 2 0.999962 2C0.447615 2 0 1.5523 0 0.999849C0 0.447699 0.447615 0 0.999962 0C1.55201 0 2 0.447699 2 0.999849Z" transform="translate(15 9)" id="Fill-4" fill="#10547F" stroke="none" />
    <path d="M2 0.999849C2 1.5523 1.55231 2 0.999962 2C0.447916 2 0 1.5523 0 0.999849C0 0.447699 0.447916 0 0.999962 0C1.55231 0 2 0.447699 2 0.999849Z" transform="translate(7 9)" id="Fill-5" fill="#10547F" stroke="none" />
  </g>
</svg>
