<?xml version="1.0" encoding="utf-8"?>
<svg viewBox="0 0 29 29" version="1.1" xmlns:xlink="http://www.w3.org/1999/xlink" xmlns="http://www.w3.org/2000/svg">
  <defs>
    <path d="M0 0L28.855 0L28.855 28.8623L0 28.8623L0 0Z" transform="translate(0.007341772 0.01541772)" id="path_1" />
    <clipPath id="mask_1">
      <use xlink:href="#path_1" />
    </clipPath>
  </defs>
  <g id="icon/filter">
    <g id="close" transform="matrix(-0.5735765 -0.819152 -0.819152 0.5735765 34.69456 18.06084)">
      <g id="Group-3">
        <path d="M0 0L28.855 0L28.855 28.8623L0 28.8623L0 0Z" transform="translate(0.007341772 0.01541772)" id="Clip-2" fill="none" stroke="none" />
        <g clip-path="url(#mask_1)">
          <path d="M14.4312 0C6.47373 0 0 6.47385 0 14.4312C0 22.3886 6.47373 28.8623 14.4312 28.8623C18.179 28.8623 21.7304 27.4323 24.4315 24.8354C24.6652 24.6107 24.6729 24.2389 24.4477 24.0051C24.2231 23.7714 23.8512 23.7637 23.6175 23.9884C21.1362 26.374 17.874 27.6875 14.4312 27.6875C7.1214 27.6875 1.17493 21.7409 1.17493 14.4312C1.17493 7.12152 7.1214 1.17493 14.4312 1.17493C21.7405 1.17493 27.6874 7.12152 27.6874 14.4312C27.6874 16.0798 27.3887 17.6882 26.7994 19.2115C26.6827 19.5141 26.8328 19.8544 27.1354 19.9715C27.4379 20.0881 27.7783 19.9381 27.8954 19.6354C28.5369 17.9765 28.8623 16.2251 28.8623 14.4312C28.8623 6.47385 22.3886 0 14.4312 0Z" transform="translate(0 0.01541772)" id="Fill-1" fill="#10547F" stroke="none" />
        </g>
      </g>
    </g>
    <g id="filter" transform="translate(6.214285 8.285714)">
      <path d="M0.359684 0.719087L0.898789 0.719087C1.09652 0.719087 1.25847 0.557361 1.25847 0.359684C1.25847 0.161726 1.09652 0 0.898789 0L0.359684 0C0.161726 0 0 0.161726 0 0.359684C0 0.557361 0.161726 0.719087 0.359684 0.719087Z" transform="translate(10.78918 2.885058)" id="Fill-1" fill="#10547F" stroke="#10547F" stroke-width="0.3" />
      <path d="M16.4697 0.395411C16.3437 0.14375 16.0923 0 15.8226 0L0.72284 0C0.453147 0 0.201486 0.161726 0.0757675 0.395411C-0.0502316 0.647128 -0.0142238 0.934797 0.147727 1.15045L6.49301 9.13165L6.49301 14.3266C6.49301 14.5963 6.63693 14.83 6.87067 14.9557C6.97841 15.0097 7.08633 15.0457 7.2121 15.0457C7.35579 15.0457 7.49977 15.0097 7.62549 14.92L9.6208 13.5358C9.90847 13.3201 10.0702 12.9964 10.0702 12.655L10.0702 9.11361L16.3977 1.15045C16.5594 0.934797 16.5954 0.647128 16.4697 0.395411ZM9.42307 8.77219C9.38706 8.82617 9.35133 8.8979 9.35133 8.9879L9.35133 12.637C9.35133 12.7628 9.29735 12.8707 9.20736 12.9425L7.2121 14.3266L7.2121 8.9879C7.2121 8.86218 7.15812 8.75421 7.06835 8.70023L3.00582 3.59516L9.53103 3.59516C9.72877 3.59516 9.89044 3.43343 9.89044 3.23575C9.89044 3.0378 9.72877 2.87607 9.53103 2.87607L2.44846 2.87607L0.72284 0.719088L15.8226 0.719088L9.42307 8.77219Z" transform="translate(-4.448101E-05 0.008987894)" id="Fill-3" fill="#10547F" stroke="#10547F" stroke-width="0.3" />
    </g>
  </g>
</svg>
