<svg viewBox="0 0 28 28" fill="none" xmlns="http://www.w3.org/2000/svg">
<path fill-rule="evenodd" clip-rule="evenodd" d="M9.12154 22.3018C4.56733 19.456 3.18844 13.4183 6.04761 8.84264C8.90679 4.26699 14.9379 2.85963 19.4921 5.70542C19.6776 5.8213 19.7336 6.06688 19.6172 6.2532C19.5006 6.43987 19.2554 6.49683 19.07 6.38096C14.8865 3.76679 9.34651 5.05959 6.72005 9.26282C4.09358 13.466 5.36017 19.012 9.54371 21.6262C13.7269 24.2402 19.2671 22.9475 21.8936 18.7443C23.5284 16.1281 23.7184 12.9047 22.4014 10.1212C22.3076 9.9232 22.3925 9.68576 22.5905 9.59086C22.7886 9.49608 23.0252 9.58013 23.119 9.77815C24.5524 12.8075 24.3456 16.3166 22.566 19.1645C19.7068 23.7401 13.6757 25.1476 9.12154 22.3018Z" fill="#7A9CB1"/>
<path fill-rule="evenodd" clip-rule="evenodd" d="M10.0626 16.3888C10.0146 16.4365 9.98026 16.4965 9.96355 16.5618L9.44578 18.5555C9.41203 18.6861 9.44943 18.8248 9.54482 18.9201C9.61724 18.9922 9.71405 19.0315 9.81372 19.0315C9.84557 19.0315 9.87782 19.0275 9.90935 19.0195L11.9031 18.5016C11.9687 18.4847 12.0284 18.4503 12.0764 18.4024L18.1074 12.3714C18.1078 12.3714 19.3222 11.1567 19.3222 11.1567C19.4707 11.0081 19.4707 10.7674 19.3222 10.6188L17.8465 9.14289C17.775 9.07142 17.6785 9.03149 17.5776 9.03149C17.4767 9.03149 17.3798 9.07142 17.3086 9.14289L16.0945 10.357C16.0942 10.357 10.0626 16.3888 10.0626 16.3888ZM11.449 17.9795L10.1477 18.3172L10.4856 17.0163L16.3274 11.1744L17.2906 12.1379L11.449 17.9795ZM17.3689 10.0936L18.3672 11.0355L17.744 11.6587L16.7686 10.7397L17.3689 10.0936Z" fill="#7A9CB1"/>
</svg>
