<svg viewBox="0 0 30 30" fill="none" xmlns="http://www.w3.org/2000/svg">
<mask id="mask0" mask-type="alpha" maskUnits="userSpaceOnUse" x="0" y="0" width="30" height="30">
<path fill-rule="evenodd" clip-rule="evenodd" d="M0.930664 15.0315L15.0692 0.892957L29.2113 15.0351L15.0728 29.1736L0.930664 15.0315Z" fill="white"/>
</mask>
<g mask="url(#mask0)">
<path fill-rule="evenodd" clip-rule="evenodd" d="M7.99786 7.96357C4.09879 11.8626 4.09885 18.2068 7.99786 22.1058C11.8969 26.0048 18.2409 26.0048 22.14 22.1057C23.9763 20.2694 25.0158 17.8285 25.0668 15.2326C25.0712 15.008 24.8928 14.822 24.668 14.8178C24.4434 14.8134 24.2574 14.9918 24.253 15.2164C24.2061 17.6011 23.2513 19.8431 21.5644 21.5301C17.9826 25.1118 12.1552 25.1117 8.57356 21.5301C4.9919 17.9484 4.99184 12.121 8.57356 8.53927C12.155 4.95785 17.9826 4.95767 21.5643 8.53933C22.3721 9.34712 23.0138 10.2815 23.4714 11.3167C23.5625 11.5221 23.8028 11.6153 24.0085 11.5244C24.2138 11.4333 24.3071 11.193 24.2162 10.9874C23.7176 9.86022 23.019 8.84258 22.14 7.96363C18.241 4.06463 11.8969 4.06457 7.99786 7.96357Z" fill="#7A9CB1"/>
</g>
<path fill-rule="evenodd" clip-rule="evenodd" d="M16.6472 14.6762C16.4226 14.6788 16.2423 14.8629 16.2449 15.0875C16.2472 15.3124 16.4313 15.4927 16.6561 15.4903L21.1395 15.4423C21.2503 15.4411 21.35 15.3958 21.4229 15.3229C21.4974 15.2484 21.5433 15.1448 21.5421 15.0308C21.5395 14.8062 21.3554 14.6259 21.1306 14.6282L16.6472 14.6762Z" fill="#7A9CB1"/>
<path fill-rule="evenodd" clip-rule="evenodd" d="M13.3417 15.4421C13.4542 15.4422 13.556 15.3965 13.6295 15.3229C13.7033 15.2491 13.7488 15.1476 13.7488 15.0351C13.7488 14.8103 13.5666 14.6281 13.3417 14.6281L9.00243 14.6281C8.77759 14.6281 8.59538 14.8103 8.59538 15.0352C8.59538 15.26 8.77759 15.4422 9.00243 15.4422L13.3417 15.4421Z" fill="#7A9CB1"/>
<path fill-rule="evenodd" clip-rule="evenodd" d="M15.0688 8.56176C14.8439 8.56176 14.6615 8.74421 14.6617 8.9688L14.6617 21.1015C14.6617 21.3263 14.8439 21.5085 15.0687 21.5085C15.181 21.5083 15.2828 21.4626 15.3564 21.3891C15.4301 21.3153 15.4756 21.2136 15.4758 21.1015L15.4758 8.9688C15.4756 8.74421 15.2934 8.562 15.0688 8.56176Z" fill="#7A9CB1"/>
</svg>
