<?xml version="1.0" encoding="utf-8"?>
<svg viewBox="0 0 28 28" version="1.1" xmlns:xlink="http://www.w3.org/1999/xlink" xmlns="http://www.w3.org/2000/svg">
  <g id="ic/search" opacity="0.69146204">
    <g id="magnifying-glass" transform="translate(6.156 6.156)">
      <path d="M15.2569 14.6051L11.516 10.8651C12.5195 9.71174 13.1271 8.20686 13.1271 6.56208C13.1271 2.9415 10.1815 0 6.56353 0C2.94216 0 0 2.94492 0 6.56208C0 10.1792 2.94557 13.1242 6.56353 13.1242C8.20868 13.1242 9.71389 12.5167 10.8675 11.5135L14.6084 15.2535C14.6971 15.3422 14.8166 15.39 14.9326 15.39C15.0487 15.39 15.1681 15.3456 15.2569 15.2535C15.4344 15.0761 15.4344 14.7826 15.2569 14.6051ZM0.918144 6.56208C0.918144 3.44995 3.45072 0.921353 6.56012 0.921353C9.67293 0.921353 12.2021 3.45337 12.2021 6.56208C12.2021 9.67079 9.67293 12.2062 6.56012 12.2062C3.45072 12.2062 0.918144 9.6742 0.918144 6.56208Z" id="Shape" fill="#10547F" stroke="#10547F" stroke-width="0.5" />
    </g>
  </g>
</svg>
