<svg viewBox="0 0 28 28" fill="none" xmlns="http://www.w3.org/2000/svg">
<path fill-rule="evenodd" clip-rule="evenodd" d="M9.0994 22.6014C4.49601 19.7249 3.10223 13.622 5.99228 8.99693C8.88234 4.37187 14.9786 2.94931 19.582 5.82583C19.7694 5.94296 19.8261 6.1912 19.7084 6.37953C19.5905 6.56821 19.3427 6.62579 19.1553 6.50866C14.9266 3.86626 9.3268 5.17303 6.67197 9.42164C4.01715 13.6703 5.29741 19.2761 9.52613 21.9185C13.7545 24.5607 19.3545 23.2541 22.0094 19.0055C23.6618 16.361 23.8539 13.1028 22.5226 10.2893C22.4278 10.0892 22.5136 9.84916 22.7138 9.75323C22.914 9.65742 23.1532 9.74238 23.248 9.94254C24.6969 13.0046 24.4879 16.5515 22.6891 19.4302C19.799 24.0553 13.7027 25.4779 9.0994 22.6014Z" fill="#7A9CB1"/>
<path d="M15.9262 13.0454C15.7777 13.0454 15.6572 13.1658 15.6572 13.3144V18.3989C15.6572 18.5473 15.7777 18.6679 15.9262 18.6679C16.0748 18.6679 16.1953 18.5473 16.1953 18.3989V13.3144C16.1953 13.1658 16.0748 13.0454 15.9262 13.0454Z" fill="#7A9CB1"/>
<path d="M12.7534 13.0454C12.6048 13.0454 12.4844 13.1658 12.4844 13.3144V18.3989C12.4844 18.5473 12.6048 18.6679 12.7534 18.6679C12.902 18.6679 13.0224 18.5473 13.0224 18.3989V13.3144C13.0224 13.1658 12.902 13.0454 12.7534 13.0454Z" fill="#7A9CB1"/>
<path d="M10.4398 12.3033V18.9313C10.4398 19.3231 10.5835 19.691 10.8344 19.955C11.0842 20.2197 11.4318 20.3699 11.7956 20.3706H16.8855C17.2494 20.3699 17.597 20.2197 17.8467 19.955C18.0977 19.691 18.2413 19.3231 18.2413 18.9313V12.3033C18.7401 12.1709 19.0634 11.689 18.9967 11.1772C18.9298 10.6654 18.4938 10.2826 17.9776 10.2825H16.6003V9.94619C16.6019 9.66341 16.4901 9.39187 16.2899 9.19211C16.0897 8.99245 15.8177 8.88127 15.535 8.88358H13.1462C12.8634 8.88127 12.5914 8.99245 12.3913 9.19211C12.1911 9.39187 12.0793 9.66341 12.0808 9.94619V10.2825H10.7035C10.1873 10.2826 9.75132 10.6654 9.68448 11.1772C9.61776 11.689 9.941 12.1709 10.4398 12.3033ZM16.8855 19.8325H11.7956C11.3357 19.8325 10.9779 19.4374 10.9779 18.9313V12.327H17.7033V18.9313C17.7033 19.4374 17.3455 19.8325 16.8855 19.8325ZM12.6189 9.94619C12.6171 9.80612 12.6721 9.67129 12.7716 9.57241C12.8709 9.47352 13.006 9.4192 13.1462 9.42161H15.535C15.6751 9.4192 15.8103 9.47352 15.9096 9.57241C16.009 9.67119 16.0641 9.80612 16.0623 9.94619V10.2825H12.6189V9.94619ZM10.7035 10.8205H17.9776C18.2451 10.8205 18.4619 11.0373 18.4619 11.3047C18.4619 11.5722 18.2451 11.789 17.9776 11.789H10.7035C10.436 11.789 10.2193 11.5722 10.2193 11.3047C10.2193 11.0373 10.436 10.8205 10.7035 10.8205Z" fill="#7A9CB1"/>
<path d="M14.3403 13.0454C14.1917 13.0454 14.0713 13.1658 14.0713 13.3144V18.3989C14.0713 18.5473 14.1917 18.6679 14.3403 18.6679C14.4889 18.6679 14.6093 18.5473 14.6093 18.3989V13.3144C14.6093 13.1658 14.4889 13.0454 14.3403 13.0454Z" fill="#7A9CB1"/>
</svg>
